{
  "source": "C:\\Users\\Peter\\Desktop\\stuff\\MIUN\\quantitative_research\\video_compression\\videos\\BVI-HD\\BVI-HD_CDVL_videos\\ORIG\\PaintingTilting_1920x1080_60fps.mp4",
  "output": "C:\\Users\\Peter\\Desktop\\stuff\\MIUN\\quantitative_research\\video_compression\\compressed_videos\\BVI-HD\\hevc\\2\\PaintingTilting_1920x1080_60fps_hevc.mp4",
  "codec": "hevc",
  "ok": "Input #0, mov,mp4,m4a,3gp,3g2,mj2, from 'C:\\Users\\Peter\\Desktop\\stuff\\MIUN\\quantitative_research\\video_compression\\videos\\BVI-HD\\BVI-HD_CDVL_videos\\ORIG\\PaintingTilting_1920x1080_60fps.mp4':\n  Metadata:\n    major_brand     : isom\n    minor_version   : 512\n    compatible_brands: isomiso2avc1mp41\n    encoder         : Lavf54.28.101\n  Duration: 00:00:05.00, start: 0.000000, bitrate: 667707 kb/s\n  Stream #0:0[0x1](und): Video: h264 (High 4:4:4 Predictive) (avc1 / 0x31637661), yuv420p(progressive), 1920x1080, 667702 kb/s, 60 fps, 60 tbr, 60 tbn (default)\n    Metadata:\n      handler_name    : VideoHandler\n      vendor_id       : [0][0][0][0]\n[out#0/mp4 @ 000001e5bdbeac00] Codec AVOption b:a (set bitrate (in bits/s)) has not been used for any stream. The most likely reason is either wrong type (e.g. a video option with no video streams) or that it is a private option of some decoder which was not actually used for any stream.\nStream mapping:\n  Stream #0:0 -> #0:0 (h264 (native) -> hevc (libx265))\nPress [q] to stop, [?] for help\n[libx265 @ 000001e5bdbf0f00] Unknown option: \"aq-mode.\nx265 [info]: HEVC encoder version 4.1+190-8f11c33ac\nx265 [info]: build info [Windows][GCC 15.1.0][64 bit] 10bit\nx265 [info]: using cpu capabilities: MMX2 SSE2Fast LZCNT SSSE3 SSE4.2 AVX FMA3 BMI2 AVX2\nx265 [info]: Main 10 profile, Level-4.1 (Main tier)\nx265 [info]: Thread pool created using 12 threads\nx265 [info]: Slices                              : 1\nx265 [info]: frame threads / pool features       : 3 / wpp(17 rows)\nx265 [info]: Coding QT: max CU size, min CU size : 64 / 8\nx265 [info]: Residual QT: max TU size, max depth : 32 / 1 inter / 1 intra\nx265 [info]: ME / range / subpel / merge         : star / 57 / 3 / 3\nx265 [info]: Keyframe min / max / scenecut / bias  : 25 / 250 / 40 / 5.00 \nx265 [info]: Lookahead / bframes / badapt        : 25 / 4 / 2\nx265 [info]: b-pyramid / weightp / weightb       : 1 / 1 / 0\nx265 [info]: References / ref-limit  cu / depth  : 4 / on / on\nx265 [info]: AQ: mode / str / qg-size / cu-tree  : 2 / 1.0 / 32 / 1\nx265 [info]: Rate Control / qCompress            : ABR-2000 kbps / 0.60\nx265 [info]: VBV/HRD buffer / max-rate / init    : 2000 / 2000 / 0.750\nx265 [info]: tools: rect limit-modes rd=4 psy-rd=2.00 rdoq=2 psy-rdoq=1.00\nx265 [info]: tools: rskip mode=1 signhide tmvp strong-intra-smoothing lslices=4\nx265 [info]: tools: deblock sao dhdr10-info\nOutput #0, mp4, to 'C:\\Users\\Peter\\Desktop\\stuff\\MIUN\\quantitative_research\\video_compression\\compressed_videos\\BVI-HD\\hevc\\2\\PaintingTilting_1920x1080_60fps_hevc.mp4':\n  Metadata:\n    major_brand     : isom\n    minor_version   : 512\n    compatible_brands: isomiso2avc1mp41\n    encoder         : Lavf62.3.100\n  Stream #0:0(und): Video: hevc (hev1 / 0x31766568), yuv420p10le(tv, progressive), 1920x1080, q=2-31, 2000 kb/s, 60 fps, 15360 tbn (default)\n    Metadata:\n      encoder         : Lavc62.11.100 libx265\n      handler_name    : VideoHandler\n      vendor_id       : [0][0][0][0]\n    Side data:\n      cpb: bitrate max/min/avg: 2000000/0/2000000 buffer size: 2000000 vbv_delay: N/A\nframe=    0 fps=0.0 q=0.0 size=       0KiB time=N/A bitrate=N/A speed=N/A elapsed=0:00:01.11    \nframe=    0 fps=0.0 q=0.0 size=       0KiB time=N/A bitrate=N/A speed=N/A elapsed=0:00:01.73    \nframe=    0 fps=0.0 q=0.0 size=       0KiB time=N/A bitrate=N/A speed=N/A elapsed=0:00:02.25    \nframe=    0 fps=0.0 q=0.0 size=       0KiB time=N/A bitrate=N/A speed=N/A elapsed=0:00:02.79    \nframe=    0 fps=0.0 q=0.0 size=       0KiB time=N/A bitrate=N/A speed=N/A elapsed=0:00:03.32    \nframe=    0 fps=0.0 q=0.0 size=       0KiB time=N/A bitrate=N/A speed=N/A elapsed=0:00:03.84    \nframe=    0 fps=0.0 q=0.0 size=       0KiB time=N/A bitrate=N/A speed=N/A elapsed=0:00:04.37    \nframe=    0 fps=0.0 q=0.0 size=       0KiB time=N/A bitrate=N/A speed=N/A elapsed=0:00:04.91    \nframe=    0 fps=0.0 q=0.0 size=       0KiB time=N/A bitrate=N/A speed=N/A elapsed=0:00:05.45    \nframe=    0 fps=0.0 q=0.0 size=       0KiB time=N/A bitrate=N/A speed=N/A elapsed=0:00:05.96    \nframe=    0 fps=0.0 q=0.0 size=       0KiB time=N/A bitrate=N/A speed=N/A elapsed=0:00:06.50    \nframe=    0 fps=0.0 q=0.0 size=       0KiB time=N/A bitrate=N/A speed=N/A elapsed=0:00:07.03    \nframe=    0 fps=0.0 q=0.0 size=       0KiB time=N/A bitrate=N/A speed=N/A elapsed=0:00:07.57    \nframe=    0 fps=0.0 q=0.0 size=       0KiB time=N/A bitrate=N/A speed=N/A elapsed=0:00:08.08    \nframe=    0 fps=0.0 q=0.0 size=       0KiB time=N/A bitrate=N/A speed=N/A elapsed=0:00:08.62    \nframe=    0 fps=0.0 q=0.0 size=       0KiB time=N/A bitrate=N/A speed=N/A elapsed=0:00:09.17    \nframe=    0 fps=0.0 q=0.0 size=       0KiB time=N/A bitrate=N/A speed=N/A elapsed=0:00:09.72    \nframe=    0 fps=0.0 q=0.0 size=       0KiB time=N/A bitrate=N/A speed=N/A elapsed=0:00:10.25    \nframe=    0 fps=0.0 q=0.0 size=       0KiB time=N/A bitrate=N/A speed=N/A elapsed=0:00:10.81    \nframe=    0 fps=0.0 q=0.0 size=       0KiB time=N/A bitrate=N/A speed=N/A elapsed=0:00:11.34    \nframe=    1 fps=0.1 q=48.3 size=       0KiB time=N/A bitrate=N/A speed=N/A elapsed=0:00:11.86    \nframe=    2 fps=0.2 q=51.0 size=       0KiB time=00:00:00.00 bitrate=N/A speed=   0x elapsed=0:00:12.41    \nframe=    3 fps=0.2 q=51.0 size=       0KiB time=00:00:00.01 bitrate=  21.1kbits/s speed=0.00129x elapsed=0:00:12.93    \nframe=    3 fps=0.2 q=51.0 size=       0KiB time=00:00:00.01 bitrate=  21.1kbits/s speed=0.00124x elapsed=0:00:13.46    \nframe=    4 fps=0.3 q=51.0 size=       0KiB time=00:00:00.03 bitrate=  10.6kbits/s speed=0.00238x elapsed=0:00:13.98    \nframe=    5 fps=0.3 q=51.0 size=       0KiB time=00:00:00.05 bitrate=   7.0kbits/s speed=0.00345x elapsed=0:00:14.49    \nframe=    6 fps=0.4 q=51.0 size=       0KiB time=00:00:00.06 bitrate=   5.3kbits/s speed=0.00444x elapsed=0:00:15.00    \nframe=    7 fps=0.5 q=49.0 size=       0KiB time=00:00:00.08 bitrate=   4.2kbits/s speed=0.00537x elapsed=0:00:15.52    \nframe=    8 fps=0.5 q=48.9 size=       0KiB time=00:00:00.10 bitrate=   3.5kbits/s speed=0.00622x elapsed=0:00:16.06    \nframe=    8 fps=0.5 q=48.9 size=       0KiB time=00:00:00.10 bitrate=   3.5kbits/s speed=0.00603x elapsed=0:00:16.57    \nframe=    9 fps=0.5 q=49.0 size=       0KiB time=00:00:00.11 bitrate=   3.0kbits/s speed=0.00682x elapsed=0:00:17.09    \nframe=   10 fps=0.6 q=44.4 size=       0KiB time=00:00:00.13 bitrate=   2.6kbits/s speed=0.00757x elapsed=0:00:17.62    \nframe=   11 fps=0.6 q=51.0 size=       0KiB time=00:00:00.15 bitrate=   2.3kbits/s speed=0.00827x elapsed=0:00:18.13    \nframe=   11 fps=0.6 q=51.0 size=       0KiB time=00:00:00.15 bitrate=   2.3kbits/s speed=0.00804x elapsed=0:00:18.65    \nframe=   12 fps=0.6 q=50.0 size=       0KiB time=00:00:00.16 bitrate=   2.1kbits/s speed=0.00868x elapsed=0:00:19.19    \nframe=   13 fps=0.7 q=50.0 size=       0KiB time=00:00:00.18 bitrate=   1.9kbits/s speed=0.00929x elapsed=0:00:19.73    \nframe=   14 fps=0.7 q=43.0 size=       0KiB time=00:00:00.20 bitrate=   1.8kbits/s speed=0.00987x elapsed=0:00:20.26    \nframe=   14 fps=0.7 q=43.0 size=       0KiB time=00:00:00.20 bitrate=   1.8kbits/s speed=0.00961x elapsed=0:00:20.80    \nframe=   14 fps=0.7 q=43.0 size=       0KiB time=00:00:00.20 bitrate=   1.8kbits/s speed=0.00937x elapsed=0:00:21.33    \nframe=   15 fps=0.7 q=50.0 size=       0KiB time=00:00:00.21 bitrate=   1.6kbits/s speed=0.0099x elapsed=0:00:21.88    \nframe=   15 fps=0.7 q=50.0 size=       0KiB time=00:00:00.21 bitrate=   1.6kbits/s speed=0.00966x elapsed=0:00:22.42    \nframe=   16 fps=0.7 q=50.0 size=       0KiB time=00:00:00.23 bitrate=   1.5kbits/s speed=0.0102x elapsed=0:00:22.98    \nframe=   17 fps=0.7 q=50.0 size=       0KiB time=00:00:00.25 bitrate=   1.4kbits/s speed=0.0106x elapsed=0:00:23.51    \nframe=   18 fps=0.7 q=42.0 size=       0KiB time=00:00:00.26 bitrate=   1.3kbits/s speed=0.0111x elapsed=0:00:24.03    \nframe=   18 fps=0.7 q=42.0 size=       0KiB time=00:00:00.26 bitrate=   1.3kbits/s speed=0.0109x elapsed=0:00:24.54    \nframe=   19 fps=0.8 q=47.4 size=       0KiB time=00:00:00.28 bitrate=   1.2kbits/s speed=0.0113x elapsed=0:00:25.06    \nframe=   19 fps=0.7 q=47.4 size=       0KiB time=00:00:00.28 bitrate=   1.2kbits/s speed=0.0111x elapsed=0:00:25.60    \nframe=   19 fps=0.7 q=47.4 size=       0KiB time=00:00:00.28 bitrate=   1.2kbits/s speed=0.0108x elapsed=0:00:26.13    \nframe=   20 fps=0.8 q=48.0 size=       0KiB time=00:00:00.30 bitrate=   1.2kbits/s speed=0.0113x elapsed=0:00:26.65    \nframe=   21 fps=0.8 q=48.0 size=       0KiB time=00:00:00.31 bitrate=   1.1kbits/s speed=0.0116x elapsed=0:00:27.18    \nframe=   22 fps=0.8 q=48.0 size=       0KiB time=00:00:00.33 bitrate=   1.1kbits/s speed=0.012x elapsed=0:00:27.71    \nframe=   23 fps=0.8 q=41.5 size=       0KiB time=00:00:00.35 bitrate=   1.0kbits/s speed=0.0124x elapsed=0:00:28.24    \nframe=   24 fps=0.8 q=48.0 size=       0KiB time=00:00:00.36 bitrate=   1.0kbits/s speed=0.0127x elapsed=0:00:28.81    \nframe=   24 fps=0.8 q=48.0 size=       0KiB time=00:00:00.36 bitrate=   1.0kbits/s speed=0.0125x elapsed=0:00:29.34    \nframe=   26 fps=0.9 q=47.0 size=       0KiB time=00:00:00.40 bitrate=   0.9kbits/s speed=0.0134x elapsed=0:00:29.88    \nframe=   26 fps=0.9 q=47.0 size=       0KiB time=00:00:00.40 bitrate=   0.9kbits/s speed=0.0132x elapsed=0:00:30.41    \nframe=   27 fps=0.9 q=40.0 size=       0KiB time=00:00:00.41 bitrate=   0.8kbits/s speed=0.0135x elapsed=0:00:30.93    \nframe=   27 fps=0.9 q=40.0 size=       0KiB time=00:00:00.41 bitrate=   0.8kbits/s speed=0.0132x elapsed=0:00:31.48    \nframe=   27 fps=0.8 q=40.0 size=       0KiB time=00:00:00.41 bitrate=   0.8kbits/s speed=0.013x elapsed=0:00:32.03    \nframe=   28 fps=0.9 q=46.0 size=       0KiB time=00:00:00.43 bitrate=   0.8kbits/s speed=0.0133x elapsed=0:00:32.56    \nframe=   29 fps=0.9 q=46.0 size=       0KiB time=00:00:00.45 bitrate=   0.8kbits/s speed=0.0136x elapsed=0:00:33.09    \nframe=   29 fps=0.9 q=46.0 size=       0KiB time=00:00:00.45 bitrate=   0.8kbits/s speed=0.0134x elapsed=0:00:33.62    \nframe=   29 fps=0.8 q=46.0 size=       0KiB time=00:00:00.45 bitrate=   0.8kbits/s speed=0.0132x elapsed=0:00:34.15    \nframe=   30 fps=0.9 q=45.0 size=       0KiB time=00:00:00.46 bitrate=   0.8kbits/s speed=0.0135x elapsed=0:00:34.68    \nframe=   31 fps=0.9 q=45.0 size=       0KiB time=00:00:00.48 bitrate=   0.7kbits/s speed=0.0137x elapsed=0:00:35.19    \nframe=   31 fps=0.9 q=45.0 size=       0KiB time=00:00:00.48 bitrate=   0.7kbits/s speed=0.0135x elapsed=0:00:35.73    \nframe=   31 fps=0.9 q=45.0 size=       0KiB time=00:00:00.48 bitrate=   0.7kbits/s speed=0.0133x elapsed=0:00:36.25    \nframe=   32 fps=0.9 q=39.8 size=       0KiB time=00:00:00.50 bitrate=   0.7kbits/s speed=0.0136x elapsed=0:00:36.78    \nframe=   32 fps=0.9 q=39.8 size=       0KiB time=00:00:00.50 bitrate=   0.7kbits/s speed=0.0134x elapsed=0:00:37.30    \nframe=   33 fps=0.9 q=46.0 size=       0KiB time=00:00:00.51 bitrate=   0.7kbits/s speed=0.0137x elapsed=0:00:37.82    \nframe=   34 fps=0.9 q=46.0 size=       0KiB time=00:00:00.53 bitrate=   0.7kbits/s speed=0.0139x elapsed=0:00:38.34    \nframe=   34 fps=0.9 q=46.0 size=       0KiB time=00:00:00.53 bitrate=   0.7kbits/s speed=0.0137x elapsed=0:00:38.88    \nframe=   34 fps=0.9 q=46.0 size=       0KiB time=00:00:00.53 bitrate=   0.7kbits/s speed=0.0135x elapsed=0:00:39.41    \nframe=   35 fps=0.9 q=45.0 size=       0KiB time=00:00:00.55 bitrate=   0.6kbits/s speed=0.0138x elapsed=0:00:39.97    \nframe=   35 fps=0.9 q=45.0 size=       0KiB time=00:00:00.55 bitrate=   0.6kbits/s speed=0.0136x elapsed=0:00:40.52    \nframe=   36 fps=0.9 q=45.0 size=       0KiB time=00:00:00.56 bitrate=   0.6kbits/s speed=0.0138x elapsed=0:00:41.05    \nframe=   37 fps=0.9 q=39.4 size=       0KiB time=00:00:00.58 bitrate=   0.6kbits/s speed=0.014x elapsed=0:00:41.57    \nframe=   37 fps=0.9 q=39.4 size=       0KiB time=00:00:00.58 bitrate=   0.6kbits/s speed=0.0139x elapsed=0:00:42.10    \nframe=   38 fps=0.9 q=44.8 size=       0KiB time=00:00:00.60 bitrate=   0.6kbits/s speed=0.0141x elapsed=0:00:42.63    \nframe=   38 fps=0.9 q=44.8 size=       0KiB time=00:00:00.60 bitrate=   0.6kbits/s speed=0.0139x elapsed=0:00:43.16    \nframe=   38 fps=0.9 q=44.8 size=       0KiB time=00:00:00.60 bitrate=   0.6kbits/s speed=0.0137x elapsed=0:00:43.68    \nframe=   39 fps=0.9 q=45.0 size=       0KiB time=00:00:00.61 bitrate=   0.6kbits/s speed=0.0139x elapsed=0:00:44.22    \nframe=   39 fps=0.9 q=45.0 size=       0KiB time=00:00:00.61 bitrate=   0.6kbits/s speed=0.0138x elapsed=0:00:44.76    \nframe=   40 fps=0.9 q=38.4 size=       0KiB time=00:00:00.63 bitrate=   0.6kbits/s speed=0.014x elapsed=0:00:45.27    \nframe=   42 fps=0.9 q=44.0 size=       0KiB time=00:00:00.66 bitrate=   0.5kbits/s speed=0.0146x elapsed=0:00:45.78    \nframe=   42 fps=0.9 q=44.0 size=       0KiB time=00:00:00.66 bitrate=   0.5kbits/s speed=0.0144x elapsed=0:00:46.31    \nframe=   42 fps=0.9 q=44.0 size=       0KiB time=00:00:00.66 bitrate=   0.5kbits/s speed=0.0142x elapsed=0:00:46.83    \nframe=   42 fps=0.9 q=44.0 size=       0KiB time=00:00:00.66 bitrate=   0.5kbits/s speed=0.0141x elapsed=0:00:47.40    \nframe=   42 fps=0.9 q=44.0 size=       0KiB time=00:00:00.66 bitrate=   0.5kbits/s speed=0.0139x elapsed=0:00:47.95    \nframe=   43 fps=0.9 q=43.0 size=       0KiB time=00:00:00.68 bitrate=   0.5kbits/s speed=0.0141x elapsed=0:00:48.47    \nframe=   44 fps=0.9 q=43.0 size=       0KiB time=00:00:00.70 bitrate=   0.5kbits/s speed=0.0143x elapsed=0:00:48.99    \nframe=   45 fps=0.9 q=38.3 size=       0KiB time=00:00:00.71 bitrate=   0.5kbits/s speed=0.0145x elapsed=0:00:49.51    \nframe=   46 fps=0.9 q=43.0 size=       0KiB time=00:00:00.73 bitrate=   0.5kbits/s speed=0.0147x elapsed=0:00:50.04    \nframe=   47 fps=0.9 q=43.0 size=       0KiB time=00:00:00.75 bitrate=   0.5kbits/s speed=0.0148x elapsed=0:00:50.60    \nframe=   47 fps=0.9 q=43.0 size=       0KiB time=00:00:00.75 bitrate=   0.5kbits/s speed=0.0147x elapsed=0:00:51.13    \nframe=   47 fps=0.9 q=43.0 size=       0KiB time=00:00:00.75 bitrate=   0.5kbits/s speed=0.0145x elapsed=0:00:51.65    \nframe=   48 fps=0.9 q=42.0 size=       0KiB time=00:00:00.76 bitrate=   0.5kbits/s speed=0.0147x elapsed=0:00:52.19    \nframe=   49 fps=0.9 q=42.0 size=       0KiB time=00:00:00.78 bitrate=   0.4kbits/s speed=0.0148x elapsed=0:00:52.75    \nframe=   49 fps=0.9 q=42.0 size=       0KiB time=00:00:00.78 bitrate=   0.4kbits/s speed=0.0147x elapsed=0:00:53.31    \nframe=   49 fps=0.9 q=42.0 size=       0KiB time=00:00:00.78 bitrate=   0.4kbits/s speed=0.0146x elapsed=0:00:53.82    \nframe=   50 fps=0.9 q=37.1 size=       0KiB time=00:00:00.80 bitrate=   0.4kbits/s speed=0.0147x elapsed=0:00:54.35    \nframe=   50 fps=0.9 q=37.1 size=       0KiB time=00:00:00.80 bitrate=   0.4kbits/s speed=0.0146x elapsed=0:00:54.89    \nframe=   50 fps=0.9 q=37.1 size=       0KiB time=00:00:00.80 bitrate=   0.4kbits/s speed=0.0144x elapsed=0:00:55.42    \nframe=   50 fps=0.9 q=37.1 size=       0KiB time=00:00:00.80 bitrate=   0.4kbits/s speed=0.0143x elapsed=0:00:55.95    \nframe=   50 fps=0.9 q=37.1 size=       0KiB time=00:00:00.80 bitrate=   0.4kbits/s speed=0.0142x elapsed=0:00:56.47    \nframe=   50 fps=0.9 q=37.1 size=       0KiB time=00:00:00.80 bitrate=   0.4kbits/s speed=0.014x elapsed=0:00:57.08    \nframe=   50 fps=0.9 q=37.1 size=       0KiB time=00:00:00.80 bitrate=   0.4kbits/s speed=0.0139x elapsed=0:00:57.69    \nframe=   50 fps=0.9 q=37.1 size=       0KiB time=00:00:00.80 bitrate=   0.4kbits/s speed=0.0137x elapsed=0:00:58.28    \nframe=   50 fps=0.8 q=37.1 size=       0KiB time=00:00:00.80 bitrate=   0.4kbits/s speed=0.0136x elapsed=0:00:58.87    \nframe=   50 fps=0.8 q=37.1 size=       0KiB time=00:00:00.80 bitrate=   0.4kbits/s speed=0.0134x elapsed=0:00:59.52    \nframe=   50 fps=0.8 q=37.1 size=       0KiB time=00:00:00.80 bitrate=   0.4kbits/s speed=0.0133x elapsed=0:01:00.17    \nframe=   51 fps=0.8 q=41.9 size=       0KiB time=00:00:00.81 bitrate=   0.4kbits/s speed=0.0134x elapsed=0:01:00.76    \nframe=   51 fps=0.8 q=41.9 size=       0KiB time=00:00:00.81 bitrate=   0.4kbits/s speed=0.0133x elapsed=0:01:01.33    \nframe=   51 fps=0.8 q=41.9 size=       0KiB time=00:00:00.81 bitrate=   0.4kbits/s speed=0.0132x elapsed=0:01:01.94    \nframe=   51 fps=0.8 q=41.9 size=       0KiB time=00:00:00.81 bitrate=   0.4kbits/s speed=0.0131x elapsed=0:01:02.46    \nframe=   51 fps=0.8 q=41.9 size=       0KiB time=00:00:00.81 bitrate=   0.4kbits/s speed=0.013x elapsed=0:01:03.05    \nframe=   51 fps=0.8 q=41.9 size=       0KiB time=00:00:00.81 bitrate=   0.4kbits/s speed=0.0128x elapsed=0:01:03.64    \nframe=   52 fps=0.8 q=42.0 size=       0KiB time=00:00:00.83 bitrate=   0.4kbits/s speed=0.013x elapsed=0:01:04.20    \nframe=   52 fps=0.8 q=42.0 size=       0KiB time=00:00:00.83 bitrate=   0.4kbits/s speed=0.0129x elapsed=0:01:04.74    \nframe=   52 fps=0.8 q=42.0 size=       0KiB time=00:00:00.83 bitrate=   0.4kbits/s speed=0.0128x elapsed=0:01:05.27    \nframe=   53 fps=0.8 q=41.0 size=       0KiB time=00:00:00.85 bitrate=   0.4kbits/s speed=0.0129x elapsed=0:01:05.80    \nframe=   53 fps=0.8 q=41.0 size=       0KiB time=00:00:00.85 bitrate=   0.4kbits/s speed=0.0128x elapsed=0:01:06.36    \nframe=   53 fps=0.8 q=41.0 size=       0KiB time=00:00:00.85 bitrate=   0.4kbits/s speed=0.0127x elapsed=0:01:06.89    \nframe=   54 fps=0.8 q=36.5 size=       0KiB time=00:00:00.86 bitrate=   0.4kbits/s speed=0.0129x elapsed=0:01:07.42    \nframe=   54 fps=0.8 q=36.5 size=       0KiB time=00:00:00.86 bitrate=   0.4kbits/s speed=0.0128x elapsed=0:01:07.96    \nframe=   55 fps=0.8 q=40.3 size=       0KiB time=00:00:00.88 bitrate=   0.4kbits/s speed=0.0129x elapsed=0:01:08.50    \nframe=   55 fps=0.8 q=40.3 size=       0KiB time=00:00:00.88 bitrate=   0.4kbits/s speed=0.0128x elapsed=0:01:09.02    \nframe=   56 fps=0.8 q=41.0 size=       0KiB time=00:00:00.90 bitrate=   0.4kbits/s speed=0.0129x elapsed=0:01:09.53    \nframe=   56 fps=0.8 q=41.0 size=       0KiB time=00:00:00.90 bitrate=   0.4kbits/s speed=0.0128x elapsed=0:01:10.06    \nframe=   57 fps=0.8 q=40.1 size=       0KiB time=00:00:00.91 bitrate=   0.4kbits/s speed=0.013x elapsed=0:01:10.58    \nframe=   57 fps=0.8 q=40.1 size=       0KiB time=00:00:00.91 bitrate=   0.4kbits/s speed=0.0129x elapsed=0:01:11.10    \nframe=   59 fps=0.8 q=36.1 size=       0KiB time=00:00:00.95 bitrate=   0.4kbits/s speed=0.0133x elapsed=0:01:11.63    \nframe=   60 fps=0.8 q=37.1 size=       0KiB time=00:00:00.96 bitrate=   0.4kbits/s speed=0.0134x elapsed=0:01:12.13    \nframe=   60 fps=0.8 q=37.1 size=       0KiB time=00:00:00.96 bitrate=   0.4kbits/s speed=0.0133x elapsed=0:01:12.66    \nframe=   61 fps=0.8 q=41.0 size=       0KiB time=00:00:00.98 bitrate=   0.4kbits/s speed=0.0134x elapsed=0:01:13.17    \nframe=   61 fps=0.8 q=41.0 size=       0KiB time=00:00:00.98 bitrate=   0.4kbits/s speed=0.0133x elapsed=0:01:13.69    \nframe=   62 fps=0.8 q=41.0 size=       0KiB time=00:00:01.00 bitrate=   0.4kbits/s speed=0.0135x elapsed=0:01:14.21    \nframe=   63 fps=0.8 q=42.0 size=       0KiB time=00:00:01.01 bitrate=   0.3kbits/s speed=0.0136x elapsed=0:01:14.75    \nframe=   65 fps=0.9 q=42.0 size=       0KiB time=00:00:01.05 bitrate=   0.3kbits/s speed=0.0139x elapsed=0:01:15.28    \nframe=   65 fps=0.9 q=42.0 size=       0KiB time=00:00:01.05 bitrate=   0.3kbits/s speed=0.0138x elapsed=0:01:15.81    \nframe=   66 fps=0.9 q=43.0 size=       0KiB time=00:00:01.06 bitrate=   0.3kbits/s speed=0.014x elapsed=0:01:16.35    \nframe=   66 fps=0.9 q=43.0 size=       0KiB time=00:00:01.06 bitrate=   0.3kbits/s speed=0.0139x elapsed=0:01:16.88    \nframe=   66 fps=0.9 q=43.0 size=       0KiB time=00:00:01.06 bitrate=   0.3kbits/s speed=0.0138x elapsed=0:01:17.41    \nframe=   67 fps=0.9 q=41.0 size=       0KiB time=00:00:01.06 bitrate=   0.3kbits/s speed=0.0137x elapsed=0:01:17.95    \nframe=   67 fps=0.9 q=41.0 size=       0KiB time=00:00:01.08 bitrate=   0.3kbits/s speed=0.0138x elapsed=0:01:18.49    \nframe=   67 fps=0.8 q=41.0 size=       0KiB time=00:00:01.08 bitrate=   0.3kbits/s speed=0.0137x elapsed=0:01:19.01    \nframe=   68 fps=0.9 q=40.1 size=       0KiB time=00:00:01.10 bitrate=   0.3kbits/s speed=0.0138x elapsed=0:01:19.52    \nframe=   68 fps=0.8 q=40.1 size=       0KiB time=00:00:01.10 bitrate=   0.3kbits/s speed=0.0137x elapsed=0:01:20.06    \nframe=   69 fps=0.9 q=35.2 size=       0KiB time=00:00:01.11 bitrate=   0.3kbits/s speed=0.0139x elapsed=0:01:20.61    \nframe=   69 fps=0.9 q=35.2 size=       0KiB time=00:00:01.11 bitrate=   0.3kbits/s speed=0.0138x elapsed=0:01:21.13    \nframe=   70 fps=0.9 q=40.0 size=       0KiB time=00:00:01.13 bitrate=   0.3kbits/s speed=0.0139x elapsed=0:01:21.65    \nframe=   70 fps=0.9 q=40.0 size=       0KiB time=00:00:01.13 bitrate=   0.3kbits/s speed=0.0138x elapsed=0:01:22.18    \nframe=   71 fps=0.9 q=41.0 size=       0KiB time=00:00:01.15 bitrate=   0.3kbits/s speed=0.0139x elapsed=0:01:22.73    \nframe=   71 fps=0.9 q=41.0 size=       0KiB time=00:00:01.15 bitrate=   0.3kbits/s speed=0.0138x elapsed=0:01:23.28    \nframe=   72 fps=0.9 q=39.0 size=       0KiB time=00:00:01.16 bitrate=   0.3kbits/s speed=0.0139x elapsed=0:01:23.82    \nframe=   73 fps=0.9 q=39.1 size=       0KiB time=00:00:01.16 bitrate=   0.3kbits/s speed=0.0138x elapsed=0:01:24.35    \nframe=   74 fps=0.9 q=34.4 size=       0KiB time=00:00:01.20 bitrate=   0.3kbits/s speed=0.0141x elapsed=0:01:24.89    \nframe=   74 fps=0.9 q=34.4 size=       0KiB time=00:00:01.20 bitrate=   0.3kbits/s speed=0.014x elapsed=0:01:25.43    \nframe=   75 fps=0.9 q=39.1 size=       0KiB time=00:00:01.21 bitrate=   0.3kbits/s speed=0.0142x elapsed=0:01:25.95    \nframe=   75 fps=0.9 q=39.1 size=       0KiB time=00:00:01.21 bitrate=   0.3kbits/s speed=0.0141x elapsed=0:01:26.50    \nframe=   76 fps=0.9 q=39.0 size=       0KiB time=00:00:01.23 bitrate=   0.3kbits/s speed=0.0142x elapsed=0:01:27.01    \nframe=   76 fps=0.9 q=39.0 size=       0KiB time=00:00:01.23 bitrate=   0.3kbits/s speed=0.0141x elapsed=0:01:27.56    \nframe=   76 fps=0.9 q=39.0 size=       0KiB time=00:00:01.23 bitrate=   0.3kbits/s speed=0.014x elapsed=0:01:28.07    \nframe=   77 fps=0.9 q=38.1 size=       0KiB time=00:00:01.25 bitrate=   0.3kbits/s speed=0.0141x elapsed=0:01:28.60    \nframe=   77 fps=0.9 q=38.1 size=       0KiB time=00:00:01.25 bitrate=   0.3kbits/s speed=0.014x elapsed=0:01:29.12    \nframe=   78 fps=0.9 q=39.0 size=       0KiB time=00:00:01.26 bitrate=   0.3kbits/s speed=0.0141x elapsed=0:01:29.64    \nframe=   79 fps=0.9 q=34.0 size=       0KiB time=00:00:01.28 bitrate=   0.3kbits/s speed=0.0142x elapsed=0:01:30.17    \nframe=   79 fps=0.9 q=34.0 size=       0KiB time=00:00:01.28 bitrate=   0.3kbits/s speed=0.0141x elapsed=0:01:30.70    \nframe=   79 fps=0.9 q=34.0 size=       0KiB time=00:00:01.28 bitrate=   0.3kbits/s speed=0.0141x elapsed=0:01:31.25    \nframe=   79 fps=0.9 q=34.0 size=       0KiB time=00:00:01.28 bitrate=   0.3kbits/s speed=0.014x elapsed=0:01:31.76    \nframe=   79 fps=0.9 q=34.0 size=       0KiB time=00:00:01.28 bitrate=   0.3kbits/s speed=0.0139x elapsed=0:01:32.29    \nframe=   80 fps=0.9 q=37.1 size=     256KiB time=00:00:01.30 bitrate=1613.5kbits/s speed=0.014x elapsed=0:01:32.82    \nframe=   81 fps=0.9 q=39.0 size=     256KiB time=00:00:01.31 bitrate=1593.0kbits/s speed=0.0141x elapsed=0:01:33.36    \nframe=   81 fps=0.9 q=39.0 size=     256KiB time=00:00:01.31 bitrate=1593.0kbits/s speed=0.014x elapsed=0:01:33.92    \nframe=   82 fps=0.9 q=34.0 size=     256KiB time=00:00:01.33 bitrate=1573.1kbits/s speed=0.0141x elapsed=0:01:34.45    \nframe=   83 fps=0.9 q=37.8 size=     256KiB time=00:00:01.35 bitrate=1553.7kbits/s speed=0.0142x elapsed=0:01:34.98    \nframe=   83 fps=0.9 q=37.8 size=     256KiB time=00:00:01.35 bitrate=1553.7kbits/s speed=0.0141x elapsed=0:01:35.51    \nframe=   84 fps=0.9 q=38.1 size=     256KiB time=00:00:01.36 bitrate=1534.8kbits/s speed=0.0142x elapsed=0:01:36.07    \nframe=   84 fps=0.9 q=38.1 size=     256KiB time=00:00:01.36 bitrate=1534.8kbits/s speed=0.0141x elapsed=0:01:36.61    \nframe=   85 fps=0.9 q=38.0 size=     256KiB time=00:00:01.38 bitrate=1516.3kbits/s speed=0.0142x elapsed=0:01:37.15    \nframe=   85 fps=0.9 q=38.0 size=     256KiB time=00:00:01.38 bitrate=1516.3kbits/s speed=0.0142x elapsed=0:01:37.66    \nframe=   86 fps=0.9 q=33.7 size=     256KiB time=00:00:01.40 bitrate=1498.2kbits/s speed=0.0143x elapsed=0:01:38.19    \nframe=   86 fps=0.9 q=33.7 size=     256KiB time=00:00:01.40 bitrate=1498.2kbits/s speed=0.0142x elapsed=0:01:38.71    \nframe=   87 fps=0.9 q=37.2 size=     256KiB time=00:00:01.41 bitrate=1480.6kbits/s speed=0.0143x elapsed=0:01:39.22    \nframe=   87 fps=0.9 q=37.2 size=     256KiB time=00:00:01.41 bitrate=1480.6kbits/s speed=0.0142x elapsed=0:01:39.75    \nframe=   88 fps=0.9 q=38.0 size=     256KiB time=00:00:01.43 bitrate=1463.4kbits/s speed=0.0143x elapsed=0:01:40.28    \nframe=   89 fps=0.9 q=33.7 size=     256KiB time=00:00:01.45 bitrate=1446.6kbits/s speed=0.0144x elapsed=0:01:40.82    \nframe=   89 fps=0.9 q=33.7 size=     256KiB time=00:00:01.45 bitrate=1446.6kbits/s speed=0.0143x elapsed=0:01:41.35    \nframe=   90 fps=0.9 q=37.1 size=     256KiB time=00:00:01.46 bitrate=1430.1kbits/s speed=0.0144x elapsed=0:01:41.88    \nframe=   91 fps=0.9 q=38.1 size=     256KiB time=00:00:01.48 bitrate=1414.0kbits/s speed=0.0145x elapsed=0:01:42.41    \nframe=   91 fps=0.9 q=38.1 size=     256KiB time=00:00:01.48 bitrate=1414.0kbits/s speed=0.0144x elapsed=0:01:42.95    \nframe=   91 fps=0.9 q=38.1 size=     256KiB time=00:00:01.48 bitrate=1414.0kbits/s speed=0.0143x elapsed=0:01:43.47    \nframe=   91 fps=0.9 q=38.1 size=     256KiB time=00:00:01.48 bitrate=1414.0kbits/s speed=0.0143x elapsed=0:01:44.00    \nframe=   91 fps=0.9 q=38.1 size=     256KiB time=00:00:01.48 bitrate=1414.0kbits/s speed=0.0142x elapsed=0:01:44.55    \nframe=   93 fps=0.9 q=37.0 size=     256KiB time=00:00:01.51 bitrate=1383.0kbits/s speed=0.0144x elapsed=0:01:45.10    \nframe=   93 fps=0.9 q=37.0 size=     256KiB time=00:00:01.51 bitrate=1383.0kbits/s speed=0.0144x elapsed=0:01:45.65    \nframe=   94 fps=0.9 q=32.7 size=     256KiB time=00:00:01.53 bitrate=1367.9kbits/s speed=0.0144x elapsed=0:01:46.21    \nframe=   94 fps=0.9 q=32.7 size=     256KiB time=00:00:01.53 bitrate=1367.9kbits/s speed=0.0144x elapsed=0:01:46.76    \nframe=   95 fps=0.9 q=37.1 size=     256KiB time=00:00:01.55 bitrate=1353.2kbits/s speed=0.0144x elapsed=0:01:47.32    \nframe=   95 fps=0.9 q=37.1 size=     256KiB time=00:00:01.55 bitrate=1353.2kbits/s speed=0.0144x elapsed=0:01:47.85    \nframe=   96 fps=0.9 q=37.0 size=     256KiB time=00:00:01.56 bitrate=1338.8kbits/s speed=0.0145x elapsed=0:01:48.37    \nframe=   96 fps=0.9 q=37.0 size=     256KiB time=00:00:01.56 bitrate=1338.8kbits/s speed=0.0144x elapsed=0:01:48.90    \nframe=   97 fps=0.9 q=36.4 size=     256KiB time=00:00:01.58 bitrate=1324.7kbits/s speed=0.0145x elapsed=0:01:49.45    \nframe=   98 fps=0.9 q=37.0 size=     256KiB time=00:00:01.60 bitrate=1310.9kbits/s speed=0.0145x elapsed=0:01:49.99    \nframe=   99 fps=0.9 q=33.0 size=     256KiB time=00:00:01.61 bitrate=1297.4kbits/s speed=0.0146x elapsed=0:01:50.53    \nframe=  100 fps=0.9 q=35.7 size=     256KiB time=00:00:01.63 bitrate=1284.2kbits/s speed=0.0147x elapsed=0:01:51.04    \nframe=  100 fps=0.9 q=35.7 size=     256KiB time=00:00:01.63 bitrate=1284.2kbits/s speed=0.0146x elapsed=0:01:51.56    \nframe=  100 fps=0.9 q=35.7 size=     256KiB time=00:00:01.63 bitrate=1284.2kbits/s speed=0.0146x elapsed=0:01:52.10    \nframe=  100 fps=0.9 q=35.7 size=     256KiB time=00:00:01.63 bitrate=1284.2kbits/s speed=0.0145x elapsed=0:01:52.63    \nframe=  101 fps=0.9 q=37.0 size=     256KiB time=00:00:01.65 bitrate=1271.2kbits/s speed=0.0146x elapsed=0:01:53.16    \nframe=  102 fps=0.9 q=37.1 size=     256KiB time=00:00:01.66 bitrate=1258.5kbits/s speed=0.0147x elapsed=0:01:53.69    \nframe=  102 fps=0.9 q=37.1 size=     256KiB time=00:00:01.66 bitrate=1258.5kbits/s speed=0.0146x elapsed=0:01:54.21    \nframe=  102 fps=0.9 q=37.1 size=     256KiB time=00:00:01.66 bitrate=1258.5kbits/s speed=0.0145x elapsed=0:01:54.74    \nframe=  103 fps=0.9 q=33.1 size=     256KiB time=00:00:01.68 bitrate=1246.0kbits/s speed=0.0146x elapsed=0:01:55.26    \nframe=  103 fps=0.9 q=33.1 size=     256KiB time=00:00:01.68 bitrate=1246.0kbits/s speed=0.0145x elapsed=0:01:55.79    \nframe=  104 fps=0.9 q=35.7 size=     256KiB time=00:00:01.70 bitrate=1233.8kbits/s speed=0.0146x elapsed=0:01:56.33    \nframe=  104 fps=0.9 q=35.7 size=     256KiB time=00:00:01.70 bitrate=1233.8kbits/s speed=0.0145x elapsed=0:01:56.87    \nframe=  105 fps=0.9 q=37.2 size=     256KiB time=00:00:01.71 bitrate=1221.8kbits/s speed=0.0146x elapsed=0:01:57.40    \nframe=  106 fps=0.9 q=32.7 size=     256KiB time=00:00:01.73 bitrate=1210.1kbits/s speed=0.0147x elapsed=0:01:57.91    \nframe=  107 fps=0.9 q=36.0 size=     256KiB time=00:00:01.75 bitrate=1198.6kbits/s speed=0.0148x elapsed=0:01:58.43    \nframe=  108 fps=0.9 q=37.0 size=     256KiB time=00:00:01.76 bitrate=1187.3kbits/s speed=0.0149x elapsed=0:01:58.95    \nframe=  108 fps=0.9 q=37.0 size=     256KiB time=00:00:01.76 bitrate=1187.3kbits/s speed=0.0148x elapsed=0:01:59.47    \nframe=  109 fps=0.9 q=36.1 size=     256KiB time=00:00:01.78 bitrate=1176.2kbits/s speed=0.0149x elapsed=0:02:00.00    \nframe=  111 fps=0.9 q=35.4 size=     256KiB time=00:00:01.81 bitrate=1154.6kbits/s speed=0.0151x elapsed=0:02:00.54    \nframe=  111 fps=0.9 q=35.4 size=     256KiB time=00:00:01.81 bitrate=1154.6kbits/s speed=0.015x elapsed=0:02:01.05    \nframe=  112 fps=0.9 q=36.1 size=     256KiB time=00:00:01.83 bitrate=1144.1kbits/s speed=0.0151x elapsed=0:02:01.58    \nframe=  112 fps=0.9 q=36.1 size=     256KiB time=00:00:01.83 bitrate=1144.1kbits/s speed=0.015x elapsed=0:02:02.16    \nframe=  112 fps=0.9 q=36.1 size=     256KiB time=00:00:01.83 bitrate=1144.1kbits/s speed=0.0149x elapsed=0:02:02.71    \nframe=  112 fps=0.9 q=36.1 size=     256KiB time=00:00:01.83 bitrate=1144.1kbits/s speed=0.0149x elapsed=0:02:03.28    \nframe=  112 fps=0.9 q=36.1 size=     256KiB time=00:00:01.83 bitrate=1144.1kbits/s speed=0.0148x elapsed=0:02:03.80    \nframe=  112 fps=0.9 q=36.1 size=     256KiB time=00:00:01.83 bitrate=1144.1kbits/s speed=0.0147x elapsed=0:02:04.32    \nframe=  113 fps=0.9 q=36.1 size=     256KiB time=00:00:01.85 bitrate=1133.8kbits/s speed=0.0148x elapsed=0:02:04.84    \nframe=  113 fps=0.9 q=36.1 size=     256KiB time=00:00:01.85 bitrate=1133.8kbits/s speed=0.0148x elapsed=0:02:05.37    \nframe=  113 fps=0.9 q=36.1 size=     256KiB time=00:00:01.85 bitrate=1133.8kbits/s speed=0.0147x elapsed=0:02:05.90    \nframe=  114 fps=0.9 q=36.0 size=     256KiB time=00:00:01.86 bitrate=1123.7kbits/s speed=0.0148x elapsed=0:02:06.43    \nframe=  114 fps=0.9 q=36.0 size=     256KiB time=00:00:01.86 bitrate=1123.7kbits/s speed=0.0147x elapsed=0:02:07.00    \nframe=  115 fps=0.9 q=31.9 size=     256KiB time=00:00:01.86 bitrate=1123.7kbits/s speed=0.0146x elapsed=0:02:07.53    \nframe=  115 fps=0.9 q=31.9 size=     256KiB time=00:00:01.88 bitrate=1113.7kbits/s speed=0.0147x elapsed=0:02:08.16    \nframe=  115 fps=0.9 q=31.9 size=     256KiB time=00:00:01.88 bitrate=1113.7kbits/s speed=0.0146x elapsed=0:02:08.76    \nframe=  116 fps=0.9 q=31.6 size=     256KiB time=00:00:01.90 bitrate=1103.9kbits/s speed=0.0147x elapsed=0:02:09.31    \nframe=  116 fps=0.9 q=31.6 size=     256KiB time=00:00:01.90 bitrate=1103.9kbits/s speed=0.0146x elapsed=0:02:09.86    \nframe=  117 fps=0.9 q=38.0 size=     256KiB time=00:00:01.91 bitrate=1094.3kbits/s speed=0.0147x elapsed=0:02:10.37    \nframe=  117 fps=0.9 q=38.0 size=     256KiB time=00:00:01.91 bitrate=1094.3kbits/s speed=0.0146x elapsed=0:02:10.96    \nframe=  117 fps=0.9 q=38.0 size=     256KiB time=00:00:01.91 bitrate=1094.3kbits/s speed=0.0146x elapsed=0:02:11.50    \nframe=  118 fps=0.9 q=37.0 size=     256KiB time=00:00:01.93 bitrate=1084.9kbits/s speed=0.0146x elapsed=0:02:12.04    \nframe=  118 fps=0.9 q=37.0 size=     256KiB time=00:00:01.93 bitrate=1084.9kbits/s speed=0.0146x elapsed=0:02:12.55    \nframe=  118 fps=0.9 q=37.0 size=     256KiB time=00:00:01.93 bitrate=1084.9kbits/s speed=0.0145x elapsed=0:02:13.10    \nframe=  118 fps=0.9 q=37.0 size=     256KiB time=00:00:01.93 bitrate=1084.9kbits/s speed=0.0145x elapsed=0:02:13.67    \nframe=  118 fps=0.9 q=37.0 size=     256KiB time=00:00:01.93 bitrate=1084.9kbits/s speed=0.0144x elapsed=0:02:14.23    \nframe=  119 fps=0.9 q=38.0 size=     256KiB time=00:00:01.93 bitrate=1084.9kbits/s speed=0.0143x elapsed=0:02:14.85    \nframe=  120 fps=0.9 q=33.6 size=     256KiB time=00:00:01.96 bitrate=1066.5kbits/s speed=0.0145x elapsed=0:02:15.40    \nframe=  120 fps=0.9 q=33.6 size=     256KiB time=00:00:01.96 bitrate=1066.5kbits/s speed=0.0145x elapsed=0:02:15.95    \nframe=  120 fps=0.9 q=33.6 size=     256KiB time=00:00:01.96 bitrate=1066.5kbits/s speed=0.0144x elapsed=0:02:16.54    \nframe=  120 fps=0.9 q=33.6 size=     256KiB time=00:00:01.96 bitrate=1066.5kbits/s speed=0.0143x elapsed=0:02:17.15    \nframe=  120 fps=0.9 q=33.6 size=     256KiB time=00:00:01.96 bitrate=1066.5kbits/s speed=0.0143x elapsed=0:02:17.72    \nframe=  120 fps=0.9 q=33.6 size=     256KiB time=00:00:01.96 bitrate=1066.5kbits/s speed=0.0142x elapsed=0:02:18.29    \nframe=  120 fps=0.9 q=33.6 size=     256KiB time=00:00:01.96 bitrate=1066.5kbits/s speed=0.0142x elapsed=0:02:18.92    \nframe=  120 fps=0.9 q=33.6 size=     256KiB time=00:00:01.96 bitrate=1066.5kbits/s speed=0.0141x elapsed=0:02:19.50    \nframe=  121 fps=0.9 q=32.7 size=     256KiB time=00:00:01.98 bitrate=1057.6kbits/s speed=0.0142x elapsed=0:02:20.14    \nframe=  121 fps=0.9 q=32.7 size=     256KiB time=00:00:01.98 bitrate=1057.6kbits/s speed=0.0141x elapsed=0:02:20.66    \nframe=  122 fps=0.9 q=38.0 size=     256KiB time=00:00:02.00 bitrate=1048.8kbits/s speed=0.0142x elapsed=0:02:21.20    \nframe=  122 fps=0.9 q=38.0 size=     256KiB time=00:00:02.00 bitrate=1048.8kbits/s speed=0.0141x elapsed=0:02:21.77    \nframe=  122 fps=0.9 q=38.0 size=     256KiB time=00:00:02.00 bitrate=1048.8kbits/s speed=0.0141x elapsed=0:02:22.31    \nframe=  122 fps=0.9 q=38.0 size=     256KiB time=00:00:02.00 bitrate=1048.8kbits/s speed=0.014x elapsed=0:02:22.86    \nframe=  122 fps=0.9 q=38.0 size=     256KiB time=00:00:02.00 bitrate=1048.8kbits/s speed=0.0139x elapsed=0:02:23.37    \nframe=  122 fps=0.8 q=38.0 size=     256KiB time=00:00:02.00 bitrate=1048.8kbits/s speed=0.0139x elapsed=0:02:23.89    \nframe=  123 fps=0.9 q=38.0 size=     256KiB time=00:00:02.01 bitrate=1040.1kbits/s speed=0.014x elapsed=0:02:24.41    \nframe=  123 fps=0.8 q=38.0 size=     256KiB time=00:00:02.01 bitrate=1040.1kbits/s speed=0.0139x elapsed=0:02:25.00    \nframe=  123 fps=0.8 q=38.0 size=     256KiB time=00:00:02.01 bitrate=1040.1kbits/s speed=0.0139x elapsed=0:02:25.51    \nframe=  123 fps=0.8 q=38.0 size=     256KiB time=00:00:02.01 bitrate=1040.1kbits/s speed=0.0138x elapsed=0:02:26.03    \nframe=  125 fps=0.9 q=32.3 size=     256KiB time=00:00:02.05 bitrate=1023.2kbits/s speed=0.014x elapsed=0:02:26.54    \nframe=  125 fps=0.8 q=32.3 size=     256KiB time=00:00:02.05 bitrate=1023.2kbits/s speed=0.0139x elapsed=0:02:27.08    \nframe=  126 fps=0.9 q=32.6 size=     256KiB time=00:00:02.06 bitrate=1014.9kbits/s speed=0.014x elapsed=0:02:27.60    \nframe=  127 fps=0.9 q=37.0 size=     256KiB time=00:00:02.08 bitrate=1006.8kbits/s speed=0.0141x elapsed=0:02:28.12    \nframe=  127 fps=0.9 q=37.0 size=     256KiB time=00:00:02.08 bitrate=1006.8kbits/s speed=0.014x elapsed=0:02:28.64    \nframe=  129 fps=0.9 q=36.2 size=     256KiB time=00:00:02.11 bitrate= 990.9kbits/s speed=0.0142x elapsed=0:02:29.16    \nframe=  130 fps=0.9 q=31.9 size=     256KiB time=00:00:02.13 bitrate= 983.2kbits/s speed=0.0143x elapsed=0:02:29.68    \nframe=  130 fps=0.9 q=31.9 size=     256KiB time=00:00:02.13 bitrate= 983.2kbits/s speed=0.0142x elapsed=0:02:30.23    \nframe=  130 fps=0.9 q=31.9 size=     256KiB time=00:00:02.13 bitrate= 983.2kbits/s speed=0.0142x elapsed=0:02:30.75    \nframe=  131 fps=0.9 q=35.4 size=     256KiB time=00:00:02.15 bitrate= 975.6kbits/s speed=0.0142x elapsed=0:02:31.28    \nframe=  132 fps=0.9 q=36.1 size=     256KiB time=00:00:02.16 bitrate= 968.1kbits/s speed=0.0143x elapsed=0:02:31.83    \nframe=  133 fps=0.9 q=36.2 size=     256KiB time=00:00:02.18 bitrate= 960.7kbits/s speed=0.0143x elapsed=0:02:32.35    \nframe=  133 fps=0.9 q=36.2 size=     256KiB time=00:00:02.18 bitrate= 960.7kbits/s speed=0.0143x elapsed=0:02:32.88    \nframe=  134 fps=0.9 q=31.4 size=     256KiB time=00:00:02.20 bitrate= 953.4kbits/s speed=0.0143x elapsed=0:02:33.40    \nframe=  134 fps=0.9 q=31.4 size=     256KiB time=00:00:02.20 bitrate= 953.4kbits/s speed=0.0143x elapsed=0:02:33.94    \nframe=  136 fps=0.9 q=36.1 size=     256KiB time=00:00:02.23 bitrate= 939.2kbits/s speed=0.0145x elapsed=0:02:34.46    \nframe=  136 fps=0.9 q=36.1 size=     256KiB time=00:00:02.23 bitrate= 939.2kbits/s speed=0.0144x elapsed=0:02:35.01    \nframe=  137 fps=0.9 q=35.5 size=     256KiB time=00:00:02.25 bitrate= 932.2kbits/s speed=0.0145x elapsed=0:02:35.56    \nframe=  137 fps=0.9 q=35.5 size=     256KiB time=00:00:02.25 bitrate= 932.2kbits/s speed=0.0144x elapsed=0:02:36.09    \nframe=  138 fps=0.9 q=35.2 size=     256KiB time=00:00:02.26 bitrate= 925.4kbits/s speed=0.0145x elapsed=0:02:36.61    \nframe=  139 fps=0.9 q=31.7 size=     256KiB time=00:00:02.28 bitrate= 918.6kbits/s speed=0.0145x elapsed=0:02:37.16    \nframe=  139 fps=0.9 q=31.7 size=     256KiB time=00:00:02.28 bitrate= 918.6kbits/s speed=0.0145x elapsed=0:02:37.71    \nframe=  140 fps=0.9 q=34.7 size=     256KiB time=00:00:02.30 bitrate= 912.0kbits/s speed=0.0145x elapsed=0:02:38.24    \nframe=  141 fps=0.9 q=35.0 size=     256KiB time=00:00:02.31 bitrate= 905.4kbits/s speed=0.0146x elapsed=0:02:38.79    \nframe=  141 fps=0.9 q=35.0 size=     256KiB time=00:00:02.31 bitrate= 905.4kbits/s speed=0.0145x elapsed=0:02:39.32    \nframe=  141 fps=0.9 q=35.0 size=     256KiB time=00:00:02.31 bitrate= 905.4kbits/s speed=0.0145x elapsed=0:02:39.85    \nframe=  141 fps=0.9 q=35.0 size=     256KiB time=00:00:02.31 bitrate= 905.4kbits/s speed=0.0144x elapsed=0:02:40.37    \nframe=  141 fps=0.9 q=35.0 size=     256KiB time=00:00:02.31 bitrate= 905.4kbits/s speed=0.0144x elapsed=0:02:40.89    \nframe=  141 fps=0.9 q=35.0 size=     256KiB time=00:00:02.31 bitrate= 905.4kbits/s speed=0.0144x elapsed=0:02:41.43    \nframe=  142 fps=0.9 q=36.1 size=     256KiB time=00:00:02.33 bitrate= 898.9kbits/s speed=0.0144x elapsed=0:02:41.95    \nframe=  143 fps=0.9 q=35.1 size=     256KiB time=00:00:02.35 bitrate= 892.6kbits/s speed=0.0145x elapsed=0:02:42.49    \nframe=  143 fps=0.9 q=35.1 size=     256KiB time=00:00:02.35 bitrate= 892.6kbits/s speed=0.0144x elapsed=0:02:43.01    \nframe=  144 fps=0.9 q=31.1 size=     256KiB time=00:00:02.36 bitrate= 886.3kbits/s speed=0.0145x elapsed=0:02:43.52    \nframe=  144 fps=0.9 q=31.1 size=     256KiB time=00:00:02.36 bitrate= 886.3kbits/s speed=0.0144x elapsed=0:02:44.04    \nframe=  144 fps=0.9 q=31.1 size=     256KiB time=00:00:02.36 bitrate= 886.3kbits/s speed=0.0144x elapsed=0:02:44.57    \nframe=  145 fps=0.9 q=31.4 size=     256KiB time=00:00:02.38 bitrate= 880.1kbits/s speed=0.0144x elapsed=0:02:45.09    \nframe=  146 fps=0.9 q=36.2 size=     256KiB time=00:00:02.40 bitrate= 874.0kbits/s speed=0.0145x elapsed=0:02:45.62    \nframe=  147 fps=0.9 q=36.2 size=     256KiB time=00:00:02.41 bitrate= 867.9kbits/s speed=0.0145x elapsed=0:02:46.18    \nframe=  147 fps=0.9 q=36.2 size=     256KiB time=00:00:02.41 bitrate= 867.9kbits/s speed=0.0145x elapsed=0:02:46.73    \nframe=  149 fps=0.9 q=31.1 size=     256KiB time=00:00:02.45 bitrate= 856.1kbits/s speed=0.0146x elapsed=0:02:47.28    \nframe=  149 fps=0.9 q=31.1 size=     256KiB time=00:00:02.45 bitrate= 856.1kbits/s speed=0.0146x elapsed=0:02:47.81    \nframe=  149 fps=0.9 q=31.1 size=     256KiB time=00:00:02.45 bitrate= 856.1kbits/s speed=0.0146x elapsed=0:02:48.36    \nframe=  150 fps=0.9 q=31.5 size=     256KiB time=00:00:02.46 bitrate= 850.3kbits/s speed=0.0146x elapsed=0:02:48.89    \nframe=  151 fps=0.9 q=36.0 size=     512KiB time=00:00:02.48 bitrate=1689.1kbits/s speed=0.0147x elapsed=0:02:49.41    \nframe=  152 fps=0.9 q=35.6 size=     512KiB time=00:00:02.50 bitrate=1677.9kbits/s speed=0.0147x elapsed=0:02:49.95    \nframe=  153 fps=0.9 q=35.2 size=     512KiB time=00:00:02.51 bitrate=1666.8kbits/s speed=0.0148x elapsed=0:02:50.50    \nframe=  154 fps=0.9 q=30.7 size=     512KiB time=00:00:02.53 bitrate=1655.8kbits/s speed=0.0148x elapsed=0:02:51.03    \nframe=  155 fps=0.9 q=34.6 size=     512KiB time=00:00:02.55 bitrate=1645.0kbits/s speed=0.0149x elapsed=0:02:51.56    \nframe=  155 fps=0.9 q=34.6 size=     512KiB time=00:00:02.55 bitrate=1645.0kbits/s speed=0.0148x elapsed=0:02:52.08    \nframe=  156 fps=0.9 q=36.0 size=     512KiB time=00:00:02.56 bitrate=1634.3kbits/s speed=0.0149x elapsed=0:02:52.60    \nframe=  157 fps=0.9 q=35.3 size=     512KiB time=00:00:02.58 bitrate=1623.7kbits/s speed=0.0149x elapsed=0:02:53.12    \nframe=  157 fps=0.9 q=35.3 size=     512KiB time=00:00:02.58 bitrate=1623.7kbits/s speed=0.0149x elapsed=0:02:53.67    \nframe=  157 fps=0.9 q=35.3 size=     512KiB time=00:00:02.58 bitrate=1623.7kbits/s speed=0.0148x elapsed=0:02:54.22    \nframe=  157 fps=0.9 q=35.3 size=     512KiB time=00:00:02.58 bitrate=1623.7kbits/s speed=0.0148x elapsed=0:02:54.75    \nframe=  158 fps=0.9 q=30.7 size=     512KiB time=00:00:02.60 bitrate=1613.3kbits/s speed=0.0148x elapsed=0:02:55.27    \nframe=  158 fps=0.9 q=30.7 size=     512KiB time=00:00:02.60 bitrate=1613.3kbits/s speed=0.0148x elapsed=0:02:55.83    \nframe=  158 fps=0.9 q=30.7 size=     512KiB time=00:00:02.60 bitrate=1613.3kbits/s speed=0.0147x elapsed=0:02:56.36    \nframe=  159 fps=0.9 q=33.6 size=     512KiB time=00:00:02.61 bitrate=1603.1kbits/s speed=0.0148x elapsed=0:02:56.89    \nframe=  159 fps=0.9 q=33.6 size=     512KiB time=00:00:02.61 bitrate=1603.1kbits/s speed=0.0147x elapsed=0:02:57.43    \nframe=  160 fps=0.9 q=35.1 size=     512KiB time=00:00:02.63 bitrate=1592.9kbits/s speed=0.0148x elapsed=0:02:57.97    \nframe=  160 fps=0.9 q=35.1 size=     512KiB time=00:00:02.63 bitrate=1592.9kbits/s speed=0.0148x elapsed=0:02:58.51    \nframe=  161 fps=0.9 q=35.1 size=     512KiB time=00:00:02.65 bitrate=1582.9kbits/s speed=0.0148x elapsed=0:02:59.03    \nframe=  162 fps=0.9 q=30.8 size=     512KiB time=00:00:02.66 bitrate=1573.0kbits/s speed=0.0149x elapsed=0:02:59.57    \nframe=  164 fps=0.9 q=35.3 size=     512KiB time=00:00:02.70 bitrate=1553.6kbits/s speed=0.015x elapsed=0:03:00.11    \nframe=  164 fps=0.9 q=35.3 size=     512KiB time=00:00:02.70 bitrate=1553.6kbits/s speed=0.0149x elapsed=0:03:00.65    \nframe=  164 fps=0.9 q=35.3 size=     512KiB time=00:00:02.70 bitrate=1553.6kbits/s speed=0.0149x elapsed=0:03:01.17    \nframe=  164 fps=0.9 q=35.3 size=     512KiB time=00:00:02.70 bitrate=1553.6kbits/s speed=0.0149x elapsed=0:03:01.70    \nframe=  164 fps=0.9 q=35.3 size=     512KiB time=00:00:02.70 bitrate=1553.6kbits/s speed=0.0148x elapsed=0:03:02.26    \nframe=  164 fps=0.9 q=35.3 size=     512KiB time=00:00:02.70 bitrate=1553.6kbits/s speed=0.0148x elapsed=0:03:02.79    \nframe=  164 fps=0.9 q=35.3 size=     512KiB time=00:00:02.70 bitrate=1553.6kbits/s speed=0.0147x elapsed=0:03:03.33    \nframe=  165 fps=0.9 q=35.0 size=     512KiB time=00:00:02.71 bitrate=1544.0kbits/s speed=0.0148x elapsed=0:03:03.89    \nframe=  165 fps=0.9 q=35.0 size=     512KiB time=00:00:02.71 bitrate=1544.0kbits/s speed=0.0147x elapsed=0:03:04.45    \nframe=  165 fps=0.9 q=35.0 size=     512KiB time=00:00:02.71 bitrate=1544.0kbits/s speed=0.0147x elapsed=0:03:04.99    \nframe=  165 fps=0.9 q=35.0 size=     512KiB time=00:00:02.71 bitrate=1544.0kbits/s speed=0.0146x elapsed=0:03:05.51    \nframe=  166 fps=0.9 q=35.5 size=     512KiB time=00:00:02.73 bitrate=1534.6kbits/s speed=0.0147x elapsed=0:03:06.06    \nframe=  166 fps=0.9 q=35.5 size=     512KiB time=00:00:02.73 bitrate=1534.6kbits/s speed=0.0146x elapsed=0:03:06.61    \nframe=  166 fps=0.9 q=35.5 size=     512KiB time=00:00:02.73 bitrate=1534.6kbits/s speed=0.0146x elapsed=0:03:07.15    \nframe=  166 fps=0.9 q=35.5 size=     512KiB time=00:00:02.73 bitrate=1534.6kbits/s speed=0.0146x elapsed=0:03:07.81    \nframe=  166 fps=0.9 q=35.5 size=     512KiB time=00:00:02.73 bitrate=1534.6kbits/s speed=0.0145x elapsed=0:03:08.45    \nframe=  166 fps=0.9 q=35.5 size=     512KiB time=00:00:02.73 bitrate=1534.6kbits/s speed=0.0145x elapsed=0:03:09.09    \nframe=  167 fps=0.9 q=30.6 size=     512KiB time=00:00:02.75 bitrate=1525.3kbits/s speed=0.0145x elapsed=0:03:09.71    \nframe=  167 fps=0.9 q=30.6 size=     512KiB time=00:00:02.75 bitrate=1525.3kbits/s speed=0.0145x elapsed=0:03:10.26    \nframe=  167 fps=0.9 q=30.6 size=     512KiB time=00:00:02.75 bitrate=1525.3kbits/s speed=0.0144x elapsed=0:03:10.81    \nframe=  167 fps=0.9 q=30.6 size=     512KiB time=00:00:02.75 bitrate=1525.3kbits/s speed=0.0144x elapsed=0:03:11.33    \nframe=  168 fps=0.9 q=30.2 size=     512KiB time=00:00:02.76 bitrate=1516.1kbits/s speed=0.0144x elapsed=0:03:11.84    \nframe=  168 fps=0.9 q=30.2 size=     512KiB time=00:00:02.76 bitrate=1516.1kbits/s speed=0.0144x elapsed=0:03:12.36    \nframe=  169 fps=0.9 q=35.0 size=     512KiB time=00:00:02.78 bitrate=1507.1kbits/s speed=0.0144x elapsed=0:03:12.91    \nframe=  170 fps=0.9 q=30.8 size=     512KiB time=00:00:02.80 bitrate=1498.1kbits/s speed=0.0145x elapsed=0:03:13.43    \nframe=  170 fps=0.9 q=30.8 size=     512KiB time=00:00:02.80 bitrate=1498.1kbits/s speed=0.0144x elapsed=0:03:14.03    \nframe=  170 fps=0.9 q=30.8 size=     512KiB time=00:00:02.80 bitrate=1498.1kbits/s speed=0.0144x elapsed=0:03:14.62    \nframe=  170 fps=0.9 q=30.8 size=     512KiB time=00:00:02.80 bitrate=1498.1kbits/s speed=0.0143x elapsed=0:03:15.18    \nframe=  171 fps=0.9 q=34.0 size=     512KiB time=00:00:02.81 bitrate=1489.2kbits/s speed=0.0144x elapsed=0:03:15.81    \nframe=  172 fps=0.9 q=36.0 size=     512KiB time=00:00:02.83 bitrate=1480.5kbits/s speed=0.0144x elapsed=0:03:16.38    \nframe=  172 fps=0.9 q=36.0 size=     512KiB time=00:00:02.83 bitrate=1480.5kbits/s speed=0.0144x elapsed=0:03:16.91    \nframe=  172 fps=0.9 q=36.0 size=     512KiB time=00:00:02.83 bitrate=1480.5kbits/s speed=0.0143x elapsed=0:03:17.47    \nframe=  172 fps=0.9 q=36.0 size=     512KiB time=00:00:02.83 bitrate=1480.5kbits/s speed=0.0143x elapsed=0:03:18.06    \nframe=  173 fps=0.9 q=35.1 size=     512KiB time=00:00:02.85 bitrate=1471.8kbits/s speed=0.0143x elapsed=0:03:18.64    \nframe=  173 fps=0.9 q=35.1 size=     512KiB time=00:00:02.85 bitrate=1471.8kbits/s speed=0.0143x elapsed=0:03:19.18    \nframe=  173 fps=0.9 q=35.1 size=     512KiB time=00:00:02.85 bitrate=1471.8kbits/s speed=0.0143x elapsed=0:03:19.78    \nframe=  173 fps=0.9 q=35.1 size=     512KiB time=00:00:02.85 bitrate=1471.8kbits/s speed=0.0142x elapsed=0:03:20.35    \nframe=  175 fps=0.9 q=31.0 size=     512KiB time=00:00:02.88 bitrate=1454.8kbits/s speed=0.0144x elapsed=0:03:20.91    \nframe=  175 fps=0.9 q=31.0 size=     512KiB time=00:00:02.88 bitrate=1454.8kbits/s speed=0.0143x elapsed=0:03:21.46    \nframe=  175 fps=0.9 q=31.0 size=     512KiB time=00:00:02.88 bitrate=1454.8kbits/s speed=0.0143x elapsed=0:03:22.05    \nframe=  175 fps=0.9 q=31.0 size=     512KiB time=00:00:02.88 bitrate=1454.8kbits/s speed=0.0142x elapsed=0:03:22.57    \nframe=  175 fps=0.9 q=31.0 size=     512KiB time=00:00:02.88 bitrate=1454.8kbits/s speed=0.0142x elapsed=0:03:23.18    \nframe=  175 fps=0.9 q=31.0 size=     512KiB time=00:00:02.88 bitrate=1454.8kbits/s speed=0.0142x elapsed=0:03:23.74    \nframe=  176 fps=0.9 q=33.4 size=     512KiB time=00:00:02.90 bitrate=1446.4kbits/s speed=0.0142x elapsed=0:03:24.27    \nframe=  176 fps=0.9 q=33.4 size=     512KiB time=00:00:02.90 bitrate=1446.4kbits/s speed=0.0142x elapsed=0:03:24.83    \nframe=  177 fps=0.9 q=35.0 size=     512KiB time=00:00:02.91 bitrate=1438.2kbits/s speed=0.0142x elapsed=0:03:25.38    \nframe=  177 fps=0.9 q=35.0 size=     512KiB time=00:00:02.91 bitrate=1438.2kbits/s speed=0.0142x elapsed=0:03:25.97    \nframe=  178 fps=0.9 q=30.7 size=     512KiB time=00:00:02.93 bitrate=1430.0kbits/s speed=0.0142x elapsed=0:03:26.55    \nframe=  178 fps=0.9 q=30.7 size=     512KiB time=00:00:02.93 bitrate=1430.0kbits/s speed=0.0142x elapsed=0:03:27.12    \nframe=  178 fps=0.9 q=30.7 size=     512KiB time=00:00:02.93 bitrate=1430.0kbits/s speed=0.0141x elapsed=0:03:27.65    \nframe=  178 fps=0.9 q=30.7 size=     512KiB time=00:00:02.93 bitrate=1430.0kbits/s speed=0.0141x elapsed=0:03:28.18    \nframe=  179 fps=0.9 q=33.7 size=     512KiB time=00:00:02.95 bitrate=1421.9kbits/s speed=0.0141x elapsed=0:03:28.74    \nframe=  179 fps=0.9 q=33.7 size=     512KiB time=00:00:02.95 bitrate=1421.9kbits/s speed=0.0141x elapsed=0:03:29.29    \nframe=  179 fps=0.9 q=33.7 size=     512KiB time=00:00:02.95 bitrate=1421.9kbits/s speed=0.0141x elapsed=0:03:29.81    \nframe=  180 fps=0.9 q=35.0 size=     512KiB time=00:00:02.96 bitrate=1413.9kbits/s speed=0.0141x elapsed=0:03:30.34    \nframe=  180 fps=0.9 q=35.0 size=     512KiB time=00:00:02.96 bitrate=1413.9kbits/s speed=0.0141x elapsed=0:03:30.89    \nframe=  180 fps=0.9 q=35.0 size=     512KiB time=00:00:02.96 bitrate=1413.9kbits/s speed=0.014x elapsed=0:03:31.44    \nframe=  181 fps=0.9 q=34.5 size=     512KiB time=00:00:02.98 bitrate=1406.0kbits/s speed=0.0141x elapsed=0:03:31.98    \nframe=  181 fps=0.9 q=34.5 size=     512KiB time=00:00:02.98 bitrate=1406.0kbits/s speed=0.014x elapsed=0:03:32.52    \nframe=  181 fps=0.8 q=34.5 size=     512KiB time=00:00:02.98 bitrate=1406.0kbits/s speed=0.014x elapsed=0:03:33.04    \nframe=  182 fps=0.9 q=31.0 size=     512KiB time=00:00:03.00 bitrate=1398.2kbits/s speed=0.014x elapsed=0:03:33.60    \nframe=  183 fps=0.9 q=29.3 size=     512KiB time=00:00:03.01 bitrate=1390.5kbits/s speed=0.0141x elapsed=0:03:34.13    \nframe=  183 fps=0.9 q=29.3 size=     512KiB time=00:00:03.01 bitrate=1390.5kbits/s speed=0.014x elapsed=0:03:34.75    \nframe=  184 fps=0.9 q=35.1 size=     512KiB time=00:00:03.03 bitrate=1382.9kbits/s speed=0.0141x elapsed=0:03:35.28    \nframe=  184 fps=0.9 q=35.1 size=     512KiB time=00:00:03.03 bitrate=1382.9kbits/s speed=0.0141x elapsed=0:03:35.85    \nframe=  184 fps=0.8 q=35.1 size=     512KiB time=00:00:03.03 bitrate=1382.9kbits/s speed=0.014x elapsed=0:03:36.49    \nframe=  184 fps=0.8 q=35.1 size=     512KiB time=00:00:03.03 bitrate=1382.9kbits/s speed=0.014x elapsed=0:03:37.08    \nframe=  184 fps=0.8 q=35.1 size=     512KiB time=00:00:03.03 bitrate=1382.9kbits/s speed=0.0139x elapsed=0:03:37.72    \nframe=  184 fps=0.8 q=35.1 size=     512KiB time=00:00:03.03 bitrate=1382.9kbits/s speed=0.0139x elapsed=0:03:38.24    \nframe=  184 fps=0.8 q=35.1 size=     512KiB time=00:00:03.03 bitrate=1382.9kbits/s speed=0.0139x elapsed=0:03:38.81    \nframe=  184 fps=0.8 q=35.1 size=     512KiB time=00:00:03.03 bitrate=1382.9kbits/s speed=0.0138x elapsed=0:03:39.39    \nframe=  185 fps=0.8 q=34.5 size=     512KiB time=00:00:03.05 bitrate=1375.3kbits/s speed=0.0139x elapsed=0:03:39.99    \nframe=  185 fps=0.8 q=34.5 size=     512KiB time=00:00:03.05 bitrate=1375.3kbits/s speed=0.0138x elapsed=0:03:40.55    \nframe=  187 fps=0.8 q=30.5 size=     512KiB time=00:00:03.08 bitrate=1360.4kbits/s speed=0.0139x elapsed=0:03:41.07    \nframe=  187 fps=0.8 q=30.5 size=     512KiB time=00:00:03.08 bitrate=1360.4kbits/s speed=0.0139x elapsed=0:03:41.59    \nframe=  189 fps=0.9 q=36.0 size=     512KiB time=00:00:03.11 bitrate=1345.9kbits/s speed=0.014x elapsed=0:03:42.11    \nframe=  189 fps=0.8 q=36.0 size=     512KiB time=00:00:03.11 bitrate=1345.9kbits/s speed=0.014x elapsed=0:03:42.65    \nframe=  189 fps=0.8 q=36.0 size=     512KiB time=00:00:03.11 bitrate=1345.9kbits/s speed=0.014x elapsed=0:03:43.18    \nframe=  189 fps=0.8 q=36.0 size=     512KiB time=00:00:03.11 bitrate=1345.9kbits/s speed=0.0139x elapsed=0:03:43.70    \nframe=  190 fps=0.8 q=36.0 size=     512KiB time=00:00:03.13 bitrate=1338.7kbits/s speed=0.014x elapsed=0:03:44.26    \nframe=  190 fps=0.8 q=36.0 size=     512KiB time=00:00:03.13 bitrate=1338.7kbits/s speed=0.0139x elapsed=0:03:44.77    \nframe=  191 fps=0.8 q=35.1 size=     512KiB time=00:00:03.15 bitrate=1331.6kbits/s speed=0.014x elapsed=0:03:45.30    \nframe=  192 fps=0.9 q=30.6 size=     512KiB time=00:00:03.16 bitrate=1324.6kbits/s speed=0.014x elapsed=0:03:45.84    \nframe=  193 fps=0.9 q=29.6 size=     512KiB time=00:00:03.18 bitrate=1317.7kbits/s speed=0.0141x elapsed=0:03:46.36    \nframe=  194 fps=0.9 q=36.0 size=     512KiB time=00:00:03.20 bitrate=1310.8kbits/s speed=0.0141x elapsed=0:03:46.90    \nframe=  195 fps=0.9 q=35.1 size=     512KiB time=00:00:03.21 bitrate=1304.0kbits/s speed=0.0141x elapsed=0:03:47.42    \nframe=  195 fps=0.9 q=35.1 size=     512KiB time=00:00:03.21 bitrate=1304.0kbits/s speed=0.0141x elapsed=0:03:47.96    \nframe=  196 fps=0.9 q=35.1 size=     512KiB time=00:00:03.23 bitrate=1297.3kbits/s speed=0.0142x elapsed=0:03:48.48    \nframe=  196 fps=0.9 q=35.1 size=     512KiB time=00:00:03.23 bitrate=1297.3kbits/s speed=0.0141x elapsed=0:03:49.00    \nframe=  197 fps=0.9 q=30.8 size=     512KiB time=00:00:03.25 bitrate=1290.7kbits/s speed=0.0142x elapsed=0:03:49.53    \nframe=  198 fps=0.9 q=34.7 size=     512KiB time=00:00:03.26 bitrate=1284.1kbits/s speed=0.0142x elapsed=0:03:50.04    \nframe=  198 fps=0.9 q=34.7 size=     512KiB time=00:00:03.26 bitrate=1284.1kbits/s speed=0.0142x elapsed=0:03:50.57    \nframe=  198 fps=0.9 q=34.7 size=     512KiB time=00:00:03.26 bitrate=1284.1kbits/s speed=0.0141x elapsed=0:03:51.10    \nframe=  200 fps=0.9 q=31.4 size=     512KiB time=00:00:03.30 bitrate=1271.1kbits/s speed=0.0142x elapsed=0:03:51.64    \nframe=  200 fps=0.9 q=31.4 size=     512KiB time=00:00:03.30 bitrate=1271.1kbits/s speed=0.0142x elapsed=0:03:52.18    \nframe=  200 fps=0.9 q=31.4 size=     512KiB time=00:00:03.30 bitrate=1271.1kbits/s speed=0.0142x elapsed=0:03:52.72    \nframe=  200 fps=0.9 q=31.4 size=     512KiB time=00:00:03.30 bitrate=1271.1kbits/s speed=0.0141x elapsed=0:03:53.25    \nframe=  200 fps=0.9 q=31.4 size=     512KiB time=00:00:03.30 bitrate=1271.1kbits/s speed=0.0141x elapsed=0:03:53.79    \nframe=  201 fps=0.9 q=32.6 size=     512KiB time=00:00:03.31 bitrate=1264.7kbits/s speed=0.0142x elapsed=0:03:54.30    \nframe=  202 fps=0.9 q=35.0 size=     512KiB time=00:00:03.33 bitrate=1258.4kbits/s speed=0.0142x elapsed=0:03:54.85    \nframe=  202 fps=0.9 q=35.0 size=     512KiB time=00:00:03.33 bitrate=1258.4kbits/s speed=0.0142x elapsed=0:03:55.38    \nframe=  202 fps=0.9 q=35.0 size=     512KiB time=00:00:03.33 bitrate=1258.4kbits/s speed=0.0141x elapsed=0:03:55.94    \nframe=  202 fps=0.9 q=35.0 size=     512KiB time=00:00:03.33 bitrate=1258.4kbits/s speed=0.0141x elapsed=0:03:56.46    \nframe=  203 fps=0.9 q=35.2 size=     512KiB time=00:00:03.35 bitrate=1252.1kbits/s speed=0.0141x elapsed=0:03:57.01    \nframe=  204 fps=0.9 q=34.1 size=     512KiB time=00:00:03.36 bitrate=1245.9kbits/s speed=0.0142x elapsed=0:03:57.54    \nframe=  204 fps=0.9 q=34.1 size=     512KiB time=00:00:03.36 bitrate=1245.9kbits/s speed=0.0141x elapsed=0:03:58.07    \nframe=  205 fps=0.9 q=30.7 size=     512KiB time=00:00:03.38 bitrate=1239.8kbits/s speed=0.0142x elapsed=0:03:58.61    \nframe=  205 fps=0.9 q=30.7 size=     512KiB time=00:00:03.38 bitrate=1239.8kbits/s speed=0.0141x elapsed=0:03:59.16    \nframe=  205 fps=0.9 q=30.7 size=     512KiB time=00:00:03.38 bitrate=1239.8kbits/s speed=0.0141x elapsed=0:03:59.67    \nframe=  205 fps=0.9 q=30.7 size=     512KiB time=00:00:03.38 bitrate=1239.8kbits/s speed=0.0141x elapsed=0:04:00.20    \nframe=  206 fps=0.9 q=33.7 size=     512KiB time=00:00:03.40 bitrate=1233.7kbits/s speed=0.0141x elapsed=0:04:00.72    \nframe=  206 fps=0.9 q=33.7 size=     512KiB time=00:00:03.40 bitrate=1233.7kbits/s speed=0.0141x elapsed=0:04:01.26    \nframe=  206 fps=0.9 q=33.7 size=     512KiB time=00:00:03.40 bitrate=1233.7kbits/s speed=0.0141x elapsed=0:04:01.81    \nframe=  206 fps=0.8 q=33.7 size=     512KiB time=00:00:03.40 bitrate=1233.7kbits/s speed=0.014x elapsed=0:04:02.36    \nframe=  207 fps=0.9 q=35.1 size=     512KiB time=00:00:03.41 bitrate=1227.7kbits/s speed=0.0141x elapsed=0:04:02.91    \nframe=  207 fps=0.9 q=35.1 size=     512KiB time=00:00:03.41 bitrate=1227.7kbits/s speed=0.014x elapsed=0:04:03.44    \nframe=  207 fps=0.8 q=35.1 size=     512KiB time=00:00:03.41 bitrate=1227.7kbits/s speed=0.014x elapsed=0:04:03.98    \nframe=  208 fps=0.9 q=34.5 size=     512KiB time=00:00:03.43 bitrate=1221.7kbits/s speed=0.014x elapsed=0:04:04.50    \nframe=  209 fps=0.9 q=31.1 size=     512KiB time=00:00:03.45 bitrate=1215.8kbits/s speed=0.0141x elapsed=0:04:05.04    \nframe=  209 fps=0.9 q=31.1 size=     512KiB time=00:00:03.45 bitrate=1215.8kbits/s speed=0.014x elapsed=0:04:05.59    \nframe=  209 fps=0.8 q=31.1 size=     512KiB time=00:00:03.45 bitrate=1215.8kbits/s speed=0.014x elapsed=0:04:06.14    \nframe=  209 fps=0.8 q=31.1 size=     512KiB time=00:00:03.45 bitrate=1215.8kbits/s speed=0.014x elapsed=0:04:06.66    \nframe=  209 fps=0.8 q=31.1 size=     512KiB time=00:00:03.45 bitrate=1215.8kbits/s speed=0.014x elapsed=0:04:07.19    \nframe=  209 fps=0.8 q=31.1 size=     512KiB time=00:00:03.45 bitrate=1215.8kbits/s speed=0.0139x elapsed=0:04:07.73    \nframe=  209 fps=0.8 q=31.1 size=     512KiB time=00:00:03.45 bitrate=1215.8kbits/s speed=0.0139x elapsed=0:04:08.27    \nframe=  210 fps=0.8 q=29.4 size=     512KiB time=00:00:03.46 bitrate=1210.0kbits/s speed=0.0139x elapsed=0:04:08.78    \nframe=  211 fps=0.8 q=35.0 size=     512KiB time=00:00:03.48 bitrate=1204.2kbits/s speed=0.014x elapsed=0:04:09.33    \nframe=  211 fps=0.8 q=35.0 size=     512KiB time=00:00:03.48 bitrate=1204.2kbits/s speed=0.0139x elapsed=0:04:09.86    \nframe=  211 fps=0.8 q=35.0 size=     512KiB time=00:00:03.48 bitrate=1204.2kbits/s speed=0.0139x elapsed=0:04:10.39    \nframe=  212 fps=0.8 q=30.8 size=     512KiB time=00:00:03.50 bitrate=1198.5kbits/s speed=0.0139x elapsed=0:04:10.95    \nframe=  212 fps=0.8 q=30.8 size=     512KiB time=00:00:03.50 bitrate=1198.5kbits/s speed=0.0139x elapsed=0:04:11.50    \nframe=  213 fps=0.8 q=34.2 size=     512KiB time=00:00:03.51 bitrate=1192.8kbits/s speed=0.014x elapsed=0:04:12.03    \nframe=  213 fps=0.8 q=34.2 size=     512KiB time=00:00:03.51 bitrate=1192.8kbits/s speed=0.0139x elapsed=0:04:12.55    \nframe=  213 fps=0.8 q=34.2 size=     512KiB time=00:00:03.51 bitrate=1192.8kbits/s speed=0.0139x elapsed=0:04:13.07    \nframe=  213 fps=0.8 q=34.2 size=     512KiB time=00:00:03.51 bitrate=1192.8kbits/s speed=0.0139x elapsed=0:04:13.62    \nframe=  214 fps=0.8 q=35.0 size=     512KiB time=00:00:03.53 bitrate=1187.2kbits/s speed=0.0139x elapsed=0:04:14.16    \nframe=  214 fps=0.8 q=35.0 size=     512KiB time=00:00:03.53 bitrate=1187.2kbits/s speed=0.0139x elapsed=0:04:14.69    \nframe=  214 fps=0.8 q=35.0 size=     512KiB time=00:00:03.53 bitrate=1187.2kbits/s speed=0.0138x elapsed=0:04:15.22    \nframe=  214 fps=0.8 q=35.0 size=     512KiB time=00:00:03.53 bitrate=1187.2kbits/s speed=0.0138x elapsed=0:04:15.75    \nframe=  214 fps=0.8 q=35.0 size=     512KiB time=00:00:03.53 bitrate=1187.2kbits/s speed=0.0138x elapsed=0:04:16.29    \nframe=  215 fps=0.8 q=35.1 size=     512KiB time=00:00:03.55 bitrate=1181.6kbits/s speed=0.0138x elapsed=0:04:16.81    \nframe=  215 fps=0.8 q=35.1 size=     512KiB time=00:00:03.55 bitrate=1181.6kbits/s speed=0.0138x elapsed=0:04:17.34    \nframe=  215 fps=0.8 q=35.1 size=     512KiB time=00:00:03.55 bitrate=1181.6kbits/s speed=0.0138x elapsed=0:04:17.85    \nframe=  216 fps=0.8 q=35.1 size=     512KiB time=00:00:03.56 bitrate=1176.1kbits/s speed=0.0138x elapsed=0:04:18.40    \nframe=  216 fps=0.8 q=35.1 size=     512KiB time=00:00:03.56 bitrate=1176.1kbits/s speed=0.0138x elapsed=0:04:18.94    \nframe=  217 fps=0.8 q=31.1 size=     512KiB time=00:00:03.58 bitrate=1170.6kbits/s speed=0.0138x elapsed=0:04:19.47    \nframe=  217 fps=0.8 q=31.1 size=     512KiB time=00:00:03.58 bitrate=1170.6kbits/s speed=0.0138x elapsed=0:04:20.00    \nframe=  217 fps=0.8 q=31.1 size=     512KiB time=00:00:03.58 bitrate=1170.6kbits/s speed=0.0138x elapsed=0:04:20.51    \nframe=  217 fps=0.8 q=31.1 size=     512KiB time=00:00:03.58 bitrate=1170.6kbits/s speed=0.0137x elapsed=0:04:21.03    \nframe=  218 fps=0.8 q=30.2 size=     512KiB time=00:00:03.60 bitrate=1165.2kbits/s speed=0.0138x elapsed=0:04:21.56    \nframe=  219 fps=0.8 q=35.2 size=     512KiB time=00:00:03.61 bitrate=1159.8kbits/s speed=0.0138x elapsed=0:04:22.08    \nframe=  219 fps=0.8 q=35.2 size=     512KiB time=00:00:03.61 bitrate=1159.8kbits/s speed=0.0138x elapsed=0:04:22.61    \nframe=  219 fps=0.8 q=35.2 size=     512KiB time=00:00:03.61 bitrate=1159.8kbits/s speed=0.0137x elapsed=0:04:23.14    \nframe=  220 fps=0.8 q=30.7 size=     512KiB time=00:00:03.63 bitrate=1154.5kbits/s speed=0.0138x elapsed=0:04:23.68    \nframe=  221 fps=0.8 q=33.4 size=     512KiB time=00:00:03.65 bitrate=1149.2kbits/s speed=0.0138x elapsed=0:04:24.20    \nframe=  221 fps=0.8 q=33.4 size=     512KiB time=00:00:03.65 bitrate=1149.2kbits/s speed=0.0138x elapsed=0:04:24.74    \nframe=  222 fps=0.8 q=35.0 size=     512KiB time=00:00:03.65 bitrate=1149.2kbits/s speed=0.0138x elapsed=0:04:25.28    \nframe=  222 fps=0.8 q=35.0 size=     512KiB time=00:00:03.66 bitrate=1144.0kbits/s speed=0.0138x elapsed=0:04:25.86    \nframe=  222 fps=0.8 q=35.0 size=     512KiB time=00:00:03.66 bitrate=1144.0kbits/s speed=0.0138x elapsed=0:04:26.40    \nframe=  222 fps=0.8 q=35.0 size=     512KiB time=00:00:03.66 bitrate=1144.0kbits/s speed=0.0137x elapsed=0:04:26.98    \nframe=  222 fps=0.8 q=35.0 size=     512KiB time=00:00:03.66 bitrate=1144.0kbits/s speed=0.0137x elapsed=0:04:27.55    \nframe=  222 fps=0.8 q=35.0 size=     512KiB time=00:00:03.66 bitrate=1144.0kbits/s speed=0.0137x elapsed=0:04:28.16    \nframe=  222 fps=0.8 q=35.0 size=     512KiB time=00:00:03.66 bitrate=1144.0kbits/s speed=0.0136x elapsed=0:04:28.80    \nframe=  223 fps=0.8 q=31.1 size=     512KiB time=00:00:03.68 bitrate=1138.8kbits/s speed=0.0137x elapsed=0:04:29.41    \nframe=  223 fps=0.8 q=31.1 size=     512KiB time=00:00:03.68 bitrate=1138.8kbits/s speed=0.0136x elapsed=0:04:30.02    \nframe=  223 fps=0.8 q=31.1 size=     512KiB time=00:00:03.68 bitrate=1138.8kbits/s speed=0.0136x elapsed=0:04:30.60    \nframe=  225 fps=0.8 q=35.0 size=     768KiB time=00:00:03.71 bitrate=1692.9kbits/s speed=0.0137x elapsed=0:04:31.17    \nframe=  226 fps=0.8 q=31.1 size=     768KiB time=00:00:03.73 bitrate=1685.3kbits/s speed=0.0137x elapsed=0:04:31.73    \nframe=  226 fps=0.8 q=31.1 size=     768KiB time=00:00:03.73 bitrate=1685.3kbits/s speed=0.0137x elapsed=0:04:32.29    \nframe=  227 fps=0.8 q=34.5 size=     768KiB time=00:00:03.75 bitrate=1677.8kbits/s speed=0.0137x elapsed=0:04:32.83    \nframe=  228 fps=0.8 q=35.1 size=     768KiB time=00:00:03.76 bitrate=1670.4kbits/s speed=0.0138x elapsed=0:04:33.37    \nframe=  228 fps=0.8 q=35.1 size=     768KiB time=00:00:03.76 bitrate=1670.4kbits/s speed=0.0137x elapsed=0:04:33.97    \nframe=  228 fps=0.8 q=35.1 size=     768KiB time=00:00:03.76 bitrate=1670.4kbits/s speed=0.0137x elapsed=0:04:34.53    \nframe=  228 fps=0.8 q=35.1 size=     768KiB time=00:00:03.76 bitrate=1670.4kbits/s speed=0.0137x elapsed=0:04:35.13    \nframe=  228 fps=0.8 q=35.1 size=     768KiB time=00:00:03.76 bitrate=1670.4kbits/s speed=0.0137x elapsed=0:04:35.70    \nframe=  230 fps=0.8 q=34.0 size=     768KiB time=00:00:03.78 bitrate=1663.0kbits/s speed=0.0137x elapsed=0:04:36.29    \nframe=  230 fps=0.8 q=34.0 size=     768KiB time=00:00:03.80 bitrate=1655.7kbits/s speed=0.0137x elapsed=0:04:36.90    \nframe=  231 fps=0.8 q=45.7 size=     768KiB time=00:00:03.80 bitrate=1655.7kbits/s speed=0.0137x elapsed=0:04:37.47    \nframe=  231 fps=0.8 q=45.7 size=     768KiB time=00:00:03.81 bitrate=1648.5kbits/s speed=0.0137x elapsed=0:04:38.09    \nframe=  231 fps=0.8 q=45.7 size=     768KiB time=00:00:03.81 bitrate=1648.5kbits/s speed=0.0137x elapsed=0:04:38.65    \nframe=  231 fps=0.8 q=45.7 size=     768KiB time=00:00:03.81 bitrate=1648.5kbits/s speed=0.0137x elapsed=0:04:39.18    \nframe=  231 fps=0.8 q=45.7 size=     768KiB time=00:00:03.81 bitrate=1648.5kbits/s speed=0.0136x elapsed=0:04:39.75    \nframe=  231 fps=0.8 q=45.7 size=     768KiB time=00:00:03.81 bitrate=1648.5kbits/s speed=0.0136x elapsed=0:04:40.33    \nframe=  232 fps=0.8 q=48.0 size=     768KiB time=00:00:03.83 bitrate=1641.3kbits/s speed=0.0136x elapsed=0:04:40.92    \nframe=  232 fps=0.8 q=48.0 size=     768KiB time=00:00:03.83 bitrate=1641.3kbits/s speed=0.0136x elapsed=0:04:41.43    \nframe=  232 fps=0.8 q=48.0 size=     768KiB time=00:00:03.83 bitrate=1641.3kbits/s speed=0.0136x elapsed=0:04:42.02    \nframe=  233 fps=0.8 q=48.0 size=     768KiB time=00:00:03.85 bitrate=1634.2kbits/s speed=0.0136x elapsed=0:04:42.54    \nframe=  234 fps=0.8 q=45.7 size=     768KiB time=00:00:03.86 bitrate=1627.2kbits/s speed=0.0137x elapsed=0:04:43.08    \nframe=  234 fps=0.8 q=45.7 size=     768KiB time=00:00:03.86 bitrate=1627.2kbits/s speed=0.0136x elapsed=0:04:43.68    \nframe=  234 fps=0.8 q=45.7 size=     768KiB time=00:00:03.86 bitrate=1627.2kbits/s speed=0.0136x elapsed=0:04:44.28    \nframe=  234 fps=0.8 q=45.7 size=     768KiB time=00:00:03.86 bitrate=1627.2kbits/s speed=0.0136x elapsed=0:04:44.84    \nframe=  234 fps=0.8 q=45.7 size=     768KiB time=00:00:03.86 bitrate=1627.2kbits/s speed=0.0135x elapsed=0:04:45.50    \nframe=  234 fps=0.8 q=45.7 size=     768KiB time=00:00:03.86 bitrate=1627.2kbits/s speed=0.0135x elapsed=0:04:46.06    \nframe=  234 fps=0.8 q=45.7 size=     768KiB time=00:00:03.86 bitrate=1627.2kbits/s speed=0.0135x elapsed=0:04:46.62    \nframe=  234 fps=0.8 q=45.7 size=     768KiB time=00:00:03.86 bitrate=1627.2kbits/s speed=0.0135x elapsed=0:04:47.19    \nframe=  234 fps=0.8 q=45.7 size=     768KiB time=00:00:03.86 bitrate=1627.2kbits/s speed=0.0134x elapsed=0:04:47.80    \nframe=  234 fps=0.8 q=45.7 size=     768KiB time=00:00:03.86 bitrate=1627.2kbits/s speed=0.0134x elapsed=0:04:48.37    \nframe=  234 fps=0.8 q=45.7 size=     768KiB time=00:00:03.86 bitrate=1627.2kbits/s speed=0.0134x elapsed=0:04:49.06    \nframe=  234 fps=0.8 q=45.7 size=     768KiB time=00:00:03.86 bitrate=1627.2kbits/s speed=0.0133x elapsed=0:04:49.69    \nframe=  234 fps=0.8 q=45.7 size=     768KiB time=00:00:03.86 bitrate=1627.2kbits/s speed=0.0133x elapsed=0:04:50.28    \nframe=  234 fps=0.8 q=45.7 size=     768KiB time=00:00:03.86 bitrate=1627.2kbits/s speed=0.0133x elapsed=0:04:50.86    \nframe=  234 fps=0.8 q=45.7 size=     768KiB time=00:00:03.86 bitrate=1627.2kbits/s speed=0.0133x elapsed=0:04:51.48    \nframe=  234 fps=0.8 q=45.7 size=     768KiB time=00:00:03.86 bitrate=1627.2kbits/s speed=0.0132x elapsed=0:04:52.08    \nframe=  234 fps=0.8 q=45.7 size=     768KiB time=00:00:03.86 bitrate=1627.2kbits/s speed=0.0132x elapsed=0:04:52.68    \nframe=  235 fps=0.8 q=48.0 size=     768KiB time=00:00:03.88 bitrate=1620.2kbits/s speed=0.0132x elapsed=0:04:53.25    \nframe=  235 fps=0.8 q=48.0 size=     768KiB time=00:00:03.88 bitrate=1620.2kbits/s speed=0.0132x elapsed=0:04:53.81    \nframe=  235 fps=0.8 q=48.0 size=     768KiB time=00:00:03.88 bitrate=1620.2kbits/s speed=0.0132x elapsed=0:04:54.35    \nframe=  235 fps=0.8 q=48.0 size=     768KiB time=00:00:03.88 bitrate=1620.2kbits/s speed=0.0132x elapsed=0:04:54.94    \nframe=  235 fps=0.8 q=48.0 size=     768KiB time=00:00:03.88 bitrate=1620.2kbits/s speed=0.0131x elapsed=0:04:55.53    \nframe=  235 fps=0.8 q=48.0 size=     768KiB time=00:00:03.88 bitrate=1620.2kbits/s speed=0.0131x elapsed=0:04:56.08    \nframe=  235 fps=0.8 q=48.0 size=     768KiB time=00:00:03.88 bitrate=1620.2kbits/s speed=0.0131x elapsed=0:04:56.62    \nframe=  236 fps=0.8 q=48.0 size=     768KiB time=00:00:03.90 bitrate=1613.3kbits/s speed=0.0131x elapsed=0:04:57.16    \nframe=  237 fps=0.8 q=48.0 size=     768KiB time=00:00:03.91 bitrate=1606.4kbits/s speed=0.0132x elapsed=0:04:57.74    \nframe=  238 fps=0.8 q=44.5 size=     768KiB time=00:00:03.93 bitrate=1599.6kbits/s speed=0.0132x elapsed=0:04:58.28    \nframe=  238 fps=0.8 q=44.5 size=     768KiB time=00:00:03.93 bitrate=1599.6kbits/s speed=0.0132x elapsed=0:04:58.85    \nframe=  239 fps=0.8 q=47.0 size=     768KiB time=00:00:03.95 bitrate=1592.9kbits/s speed=0.0132x elapsed=0:04:59.39    \nframe=  239 fps=0.8 q=47.0 size=     768KiB time=00:00:03.95 bitrate=1592.9kbits/s speed=0.0132x elapsed=0:04:59.96    \nframe=  239 fps=0.8 q=47.0 size=     768KiB time=00:00:03.95 bitrate=1592.9kbits/s speed=0.0131x elapsed=0:05:00.49    \nframe=  239 fps=0.8 q=47.0 size=     768KiB time=00:00:03.95 bitrate=1592.9kbits/s speed=0.0131x elapsed=0:05:01.06    \nframe=  239 fps=0.8 q=47.0 size=     768KiB time=00:00:03.95 bitrate=1592.9kbits/s speed=0.0131x elapsed=0:05:01.60    \nframe=  240 fps=0.8 q=47.0 size=     768KiB time=00:00:03.96 bitrate=1586.2kbits/s speed=0.0131x elapsed=0:05:02.14    \nframe=  240 fps=0.8 q=47.0 size=     768KiB time=00:00:03.96 bitrate=1586.2kbits/s speed=0.0131x elapsed=0:05:02.70    \nframe=  240 fps=0.8 q=47.0 size=     768KiB time=00:00:03.96 bitrate=1586.2kbits/s speed=0.0131x elapsed=0:05:03.26    \nframe=  241 fps=0.8 q=47.0 size=     768KiB time=00:00:03.98 bitrate=1579.5kbits/s speed=0.0131x elapsed=0:05:03.79    \nframe=  242 fps=0.8 q=47.0 size=     768KiB time=00:00:04.00 bitrate=1573.0kbits/s speed=0.0131x elapsed=0:05:04.34    \nframe=  242 fps=0.8 q=47.0 size=     768KiB time=00:00:04.00 bitrate=1573.0kbits/s speed=0.0131x elapsed=0:05:04.87    \nframe=  242 fps=0.8 q=47.0 size=     768KiB time=00:00:04.00 bitrate=1573.0kbits/s speed=0.0131x elapsed=0:05:05.38    \nframe=  243 fps=0.8 q=43.7 size=     768KiB time=00:00:04.01 bitrate=1566.4kbits/s speed=0.0131x elapsed=0:05:05.91    \nframe=  244 fps=0.8 q=47.0 size=     768KiB time=00:00:04.03 bitrate=1560.0kbits/s speed=0.0132x elapsed=0:05:06.41    \nframe=  244 fps=0.8 q=47.0 size=     768KiB time=00:00:04.03 bitrate=1560.0kbits/s speed=0.0131x elapsed=0:05:06.97    \nframe=  245 fps=0.8 q=41.9 size=     768KiB time=00:00:04.05 bitrate=1553.5kbits/s speed=0.0132x elapsed=0:05:07.51    \nframe=  245 fps=0.8 q=41.9 size=     768KiB time=00:00:04.05 bitrate=1553.5kbits/s speed=0.0131x elapsed=0:05:08.04    \nframe=  245 fps=0.8 q=41.9 size=     768KiB time=00:00:04.05 bitrate=1553.5kbits/s speed=0.0131x elapsed=0:05:08.60    \nframe=  245 fps=0.8 q=41.9 size=     768KiB time=00:00:04.05 bitrate=1553.5kbits/s speed=0.0131x elapsed=0:05:09.19    \nframe=  245 fps=0.8 q=41.9 size=     768KiB time=00:00:04.05 bitrate=1553.5kbits/s speed=0.0131x elapsed=0:05:09.84    \nframe=  245 fps=0.8 q=41.9 size=     768KiB time=00:00:04.05 bitrate=1553.5kbits/s speed=0.013x elapsed=0:05:10.44    \nframe=  245 fps=0.8 q=41.9 size=     768KiB time=00:00:04.05 bitrate=1553.5kbits/s speed=0.013x elapsed=0:05:11.14    \nframe=  245 fps=0.8 q=41.9 size=     768KiB time=00:00:04.05 bitrate=1553.5kbits/s speed=0.013x elapsed=0:05:11.74    \nframe=  245 fps=0.8 q=41.9 size=     768KiB time=00:00:04.05 bitrate=1553.5kbits/s speed=0.013x elapsed=0:05:12.34    \nframe=  245 fps=0.8 q=41.9 size=     768KiB time=00:00:04.05 bitrate=1553.5kbits/s speed=0.0129x elapsed=0:05:12.91    \nframe=  245 fps=0.8 q=41.9 size=     768KiB time=00:00:04.05 bitrate=1553.5kbits/s speed=0.0129x elapsed=0:05:13.44    \nframe=  246 fps=0.8 q=46.0 size=     768KiB time=00:00:04.06 bitrate=1547.2kbits/s speed=0.013x elapsed=0:05:13.99    \nframe=  246 fps=0.8 q=46.0 size=     768KiB time=00:00:04.06 bitrate=1547.2kbits/s speed=0.0129x elapsed=0:05:14.53    \nframe=  247 fps=0.8 q=46.0 size=     768KiB time=00:00:04.08 bitrate=1540.9kbits/s speed=0.013x elapsed=0:05:15.07    \nframe=  247 fps=0.8 q=46.0 size=     768KiB time=00:00:04.08 bitrate=1540.9kbits/s speed=0.0129x elapsed=0:05:15.64    \nframe=  247 fps=0.8 q=46.0 size=     768KiB time=00:00:04.08 bitrate=1540.9kbits/s speed=0.0129x elapsed=0:05:16.23    \nframe=  247 fps=0.8 q=46.0 size=     768KiB time=00:00:04.08 bitrate=1540.9kbits/s speed=0.0129x elapsed=0:05:16.75    \nframe=  247 fps=0.8 q=46.0 size=     768KiB time=00:00:04.08 bitrate=1540.9kbits/s speed=0.0129x elapsed=0:05:17.27    \nframe=  247 fps=0.8 q=46.0 size=     768KiB time=00:00:04.08 bitrate=1540.9kbits/s speed=0.0128x elapsed=0:05:17.85    \nframe=  247 fps=0.8 q=46.0 size=     768KiB time=00:00:04.08 bitrate=1540.9kbits/s speed=0.0128x elapsed=0:05:18.42    \nframe=  247 fps=0.8 q=46.0 size=     768KiB time=00:00:04.08 bitrate=1540.9kbits/s speed=0.0128x elapsed=0:05:18.95    \nframe=  247 fps=0.8 q=46.0 size=     768KiB time=00:00:04.08 bitrate=1540.9kbits/s speed=0.0128x elapsed=0:05:19.53    \nframe=  247 fps=0.8 q=46.0 size=     768KiB time=00:00:04.08 bitrate=1540.9kbits/s speed=0.0128x elapsed=0:05:20.09    \nframe=  247 fps=0.8 q=46.0 size=     768KiB time=00:00:04.08 bitrate=1540.9kbits/s speed=0.0127x elapsed=0:05:20.69    \nframe=  247 fps=0.8 q=46.0 size=     768KiB time=00:00:04.08 bitrate=1540.9kbits/s speed=0.0127x elapsed=0:05:21.24    \nframe=  247 fps=0.8 q=46.0 size=     768KiB time=00:00:04.08 bitrate=1540.9kbits/s speed=0.0127x elapsed=0:05:21.78    \nframe=  248 fps=0.8 q=46.0 size=     768KiB time=00:00:04.10 bitrate=1534.6kbits/s speed=0.0127x elapsed=0:05:22.37    \nframe=  248 fps=0.8 q=46.0 size=     768KiB time=00:00:04.10 bitrate=1534.6kbits/s speed=0.0127x elapsed=0:05:22.94    \nframe=  248 fps=0.8 q=46.0 size=     768KiB time=00:00:04.10 bitrate=1534.6kbits/s speed=0.0127x elapsed=0:05:23.49    \nframe=  248 fps=0.8 q=46.0 size=     768KiB time=00:00:04.10 bitrate=1534.6kbits/s speed=0.0127x elapsed=0:05:24.02    \nframe=  248 fps=0.8 q=46.0 size=     768KiB time=00:00:04.10 bitrate=1534.6kbits/s speed=0.0126x elapsed=0:05:24.59    \nframe=  249 fps=0.8 q=42.4 size=     768KiB time=00:00:04.11 bitrate=1528.4kbits/s speed=0.0127x elapsed=0:05:25.13    \nframe=  249 fps=0.8 q=42.4 size=     768KiB time=00:00:04.11 bitrate=1528.4kbits/s speed=0.0126x elapsed=0:05:25.66    \nframe=  249 fps=0.8 q=42.4 size=     768KiB time=00:00:04.11 bitrate=1528.4kbits/s speed=0.0126x elapsed=0:05:26.23    \nframe=  249 fps=0.8 q=42.4 size=     768KiB time=00:00:04.11 bitrate=1528.4kbits/s speed=0.0126x elapsed=0:05:26.77    \nframe=  249 fps=0.8 q=42.4 size=     768KiB time=00:00:04.11 bitrate=1528.4kbits/s speed=0.0126x elapsed=0:05:27.32    \nframe=  249 fps=0.8 q=42.4 size=     768KiB time=00:00:04.11 bitrate=1528.4kbits/s speed=0.0126x elapsed=0:05:27.85    \nframe=  249 fps=0.8 q=42.4 size=     768KiB time=00:00:04.11 bitrate=1528.4kbits/s speed=0.0125x elapsed=0:05:28.39    \nframe=  249 fps=0.8 q=42.4 size=     768KiB time=00:00:04.11 bitrate=1528.4kbits/s speed=0.0125x elapsed=0:05:28.94    \nframe=  250 fps=0.8 q=45.0 size=     768KiB time=00:00:04.13 bitrate=1522.2kbits/s speed=0.0125x elapsed=0:05:29.47    \nframe=  251 fps=0.8 q=46.0 size=     768KiB time=00:00:04.15 bitrate=1516.1kbits/s speed=0.0126x elapsed=0:05:29.99    \nframe=  252 fps=0.8 q=38.2 size=     768KiB time=00:00:04.16 bitrate=1510.0kbits/s speed=0.0126x elapsed=0:05:30.52    \nframe=  252 fps=0.8 q=38.2 size=     768KiB time=00:00:04.16 bitrate=1510.0kbits/s speed=0.0126x elapsed=0:05:31.08    \nframe=  252 fps=0.8 q=38.2 size=     768KiB time=00:00:04.16 bitrate=1510.0kbits/s speed=0.0126x elapsed=0:05:31.67    \nframe=  252 fps=0.8 q=38.2 size=     768KiB time=00:00:04.16 bitrate=1510.0kbits/s speed=0.0125x elapsed=0:05:32.24    \nframe=  252 fps=0.8 q=38.2 size=     768KiB time=00:00:04.16 bitrate=1510.0kbits/s speed=0.0125x elapsed=0:05:32.81    \nframe=  252 fps=0.8 q=38.2 size=     768KiB time=00:00:04.16 bitrate=1510.0kbits/s speed=0.0125x elapsed=0:05:33.42    \nframe=  252 fps=0.8 q=38.2 size=     768KiB time=00:00:04.16 bitrate=1510.0kbits/s speed=0.0125x elapsed=0:05:33.95    \nframe=  252 fps=0.8 q=38.2 size=     768KiB time=00:00:04.16 bitrate=1510.0kbits/s speed=0.0125x elapsed=0:05:34.50    \nframe=  252 fps=0.8 q=38.2 size=     768KiB time=00:00:04.16 bitrate=1510.0kbits/s speed=0.0124x elapsed=0:05:35.07    \nframe=  252 fps=0.8 q=38.2 size=     768KiB time=00:00:04.16 bitrate=1510.0kbits/s speed=0.0124x elapsed=0:05:35.60    \nframe=  253 fps=0.8 q=39.0 size=     768KiB time=00:00:04.18 bitrate=1504.0kbits/s speed=0.0124x elapsed=0:05:36.14    \nframe=  253 fps=0.8 q=39.0 size=     768KiB time=00:00:04.18 bitrate=1504.0kbits/s speed=0.0124x elapsed=0:05:36.69    \nframe=  254 fps=0.8 q=40.1 size=     768KiB time=00:00:04.20 bitrate=1498.0kbits/s speed=0.0125x elapsed=0:05:37.26    \nframe=  255 fps=0.8 q=45.0 size=     768KiB time=00:00:04.21 bitrate=1492.1kbits/s speed=0.0125x elapsed=0:05:37.82    \nframe=  255 fps=0.8 q=45.0 size=     768KiB time=00:00:04.21 bitrate=1492.1kbits/s speed=0.0125x elapsed=0:05:38.34    \nframe=  256 fps=0.8 q=46.7 size=     768KiB time=00:00:04.23 bitrate=1486.3kbits/s speed=0.0125x elapsed=0:05:38.85    \nframe=  256 fps=0.8 q=46.7 size=     768KiB time=00:00:04.23 bitrate=1486.3kbits/s speed=0.0125x elapsed=0:05:39.42    \nframe=  256 fps=0.8 q=46.7 size=     768KiB time=00:00:04.23 bitrate=1486.3kbits/s speed=0.0125x elapsed=0:05:39.98    \nframe=  257 fps=0.8 q=49.0 size=     768KiB time=00:00:04.25 bitrate=1480.4kbits/s speed=0.0125x elapsed=0:05:40.51    \nframe=  257 fps=0.8 q=49.0 size=     768KiB time=00:00:04.25 bitrate=1480.4kbits/s speed=0.0125x elapsed=0:05:41.02    \nframe=  257 fps=0.8 q=49.0 size=     768KiB time=00:00:04.25 bitrate=1480.4kbits/s speed=0.0124x elapsed=0:05:41.58    \nframe=  257 fps=0.8 q=49.0 size=     768KiB time=00:00:04.25 bitrate=1480.4kbits/s speed=0.0124x elapsed=0:05:42.10    \nframe=  257 fps=0.8 q=49.0 size=     768KiB time=00:00:04.25 bitrate=1480.4kbits/s speed=0.0124x elapsed=0:05:42.63    \nframe=  258 fps=0.8 q=49.0 size=     768KiB time=00:00:04.26 bitrate=1474.6kbits/s speed=0.0124x elapsed=0:05:43.21    \nframe=  259 fps=0.8 q=50.0 size=     768KiB time=00:00:04.28 bitrate=1468.9kbits/s speed=0.0125x elapsed=0:05:43.80    \nframe=  260 fps=0.8 q=39.3 size=     768KiB time=00:00:04.30 bitrate=1463.2kbits/s speed=0.0125x elapsed=0:05:44.33    \nframe=  260 fps=0.8 q=39.3 size=     768KiB time=00:00:04.30 bitrate=1463.2kbits/s speed=0.0125x elapsed=0:05:44.86    \nframe=  261 fps=0.8 q=46.0 size=     768KiB time=00:00:04.31 bitrate=1457.6kbits/s speed=0.0125x elapsed=0:05:45.41    \nframe=  261 fps=0.8 q=46.0 size=     768KiB time=00:00:04.31 bitrate=1457.6kbits/s speed=0.0125x elapsed=0:05:45.95    \nframe=  261 fps=0.8 q=46.0 size=     768KiB time=00:00:04.31 bitrate=1457.6kbits/s speed=0.0125x elapsed=0:05:46.46    \nframe=  262 fps=0.8 q=47.0 size=     768KiB time=00:00:04.33 bitrate=1452.0kbits/s speed=0.0125x elapsed=0:05:47.03    \nframe=  262 fps=0.8 q=47.0 size=     768KiB time=00:00:04.33 bitrate=1452.0kbits/s speed=0.0125x elapsed=0:05:47.54    \nframe=  263 fps=0.8 q=47.0 size=     768KiB time=00:00:04.35 bitrate=1446.4kbits/s speed=0.0125x elapsed=0:05:48.08    \nframe=  264 fps=0.8 q=46.0 size=     768KiB time=00:00:04.36 bitrate=1440.9kbits/s speed=0.0125x elapsed=0:05:48.66    \nframe=  264 fps=0.8 q=46.0 size=     768KiB time=00:00:04.36 bitrate=1440.9kbits/s speed=0.0125x elapsed=0:05:49.20    \nframe=  264 fps=0.8 q=46.0 size=     768KiB time=00:00:04.36 bitrate=1440.9kbits/s speed=0.0125x elapsed=0:05:49.74    \nframe=  264 fps=0.8 q=46.0 size=     768KiB time=00:00:04.36 bitrate=1440.9kbits/s speed=0.0125x elapsed=0:05:50.33    \nframe=  264 fps=0.8 q=46.0 size=     768KiB time=00:00:04.36 bitrate=1440.9kbits/s speed=0.0124x elapsed=0:05:50.89    \nframe=  264 fps=0.8 q=46.0 size=     768KiB time=00:00:04.36 bitrate=1440.9kbits/s speed=0.0124x elapsed=0:05:51.53    \nframe=  264 fps=0.7 q=46.0 size=     768KiB time=00:00:04.36 bitrate=1440.9kbits/s speed=0.0124x elapsed=0:05:52.10    \nframe=  264 fps=0.7 q=46.0 size=     768KiB time=00:00:04.36 bitrate=1440.9kbits/s speed=0.0124x elapsed=0:05:52.77    \nframe=  264 fps=0.7 q=46.0 size=     768KiB time=00:00:04.36 bitrate=1440.9kbits/s speed=0.0124x elapsed=0:05:53.44    \nframe=  264 fps=0.7 q=46.0 size=     768KiB time=00:00:04.36 bitrate=1440.9kbits/s speed=0.0123x elapsed=0:05:54.07    \nframe=  264 fps=0.7 q=46.0 size=     768KiB time=00:00:04.36 bitrate=1440.9kbits/s speed=0.0123x elapsed=0:05:54.71    \nframe=  264 fps=0.7 q=46.0 size=     768KiB time=00:00:04.36 bitrate=1440.9kbits/s speed=0.0123x elapsed=0:05:55.25    \nframe=  264 fps=0.7 q=46.0 size=     768KiB time=00:00:04.36 bitrate=1440.9kbits/s speed=0.0123x elapsed=0:05:55.84    \nframe=  264 fps=0.7 q=46.0 size=     768KiB time=00:00:04.36 bitrate=1440.9kbits/s speed=0.0122x elapsed=0:05:56.46    \nframe=  264 fps=0.7 q=46.0 size=     768KiB time=00:00:04.36 bitrate=1440.9kbits/s speed=0.0122x elapsed=0:05:57.07    \nframe=  264 fps=0.7 q=46.0 size=     768KiB time=00:00:04.36 bitrate=1440.9kbits/s speed=0.0122x elapsed=0:05:57.66    \nframe=  266 fps=0.7 q=42.0 size=     768KiB time=00:00:04.40 bitrate=1430.0kbits/s speed=0.0123x elapsed=0:05:58.21    \nframe=  267 fps=0.7 q=43.0 size=     768KiB time=00:00:04.41 bitrate=1424.6kbits/s speed=0.0123x elapsed=0:05:58.75    \nframe=  267 fps=0.7 q=43.0 size=     768KiB time=00:00:04.41 bitrate=1424.6kbits/s speed=0.0123x elapsed=0:05:59.35    \nframe=  267 fps=0.7 q=43.0 size=     768KiB time=00:00:04.41 bitrate=1424.6kbits/s speed=0.0123x elapsed=0:05:59.90    \nframe=  268 fps=0.7 q=40.3 size=     768KiB time=00:00:04.43 bitrate=1419.2kbits/s speed=0.0123x elapsed=0:06:00.47    \nframe=  268 fps=0.7 q=40.3 size=     768KiB time=00:00:04.43 bitrate=1419.2kbits/s speed=0.0123x elapsed=0:06:01.00    \nframe=  268 fps=0.7 q=40.3 size=     768KiB time=00:00:04.43 bitrate=1419.2kbits/s speed=0.0123x elapsed=0:06:01.54    \nframe=  268 fps=0.7 q=40.3 size=     768KiB time=00:00:04.43 bitrate=1419.2kbits/s speed=0.0122x elapsed=0:06:02.08    \nframe=  268 fps=0.7 q=40.3 size=     768KiB time=00:00:04.43 bitrate=1419.2kbits/s speed=0.0122x elapsed=0:06:02.61    \nframe=  269 fps=0.7 q=43.0 size=     768KiB time=00:00:04.45 bitrate=1413.9kbits/s speed=0.0123x elapsed=0:06:03.14    \nframe=  269 fps=0.7 q=43.0 size=     768KiB time=00:00:04.45 bitrate=1413.9kbits/s speed=0.0122x elapsed=0:06:03.69    \nframe=  270 fps=0.7 q=44.0 size=     768KiB time=00:00:04.46 bitrate=1408.6kbits/s speed=0.0123x elapsed=0:06:04.20    \nframe=  270 fps=0.7 q=44.0 size=     768KiB time=00:00:04.46 bitrate=1408.6kbits/s speed=0.0122x elapsed=0:06:04.73    \nframe=  271 fps=0.7 q=34.3 size=     768KiB time=00:00:04.48 bitrate=1403.4kbits/s speed=0.0123x elapsed=0:06:05.28    \nframe=  272 fps=0.7 q=41.0 size=     768KiB time=00:00:04.50 bitrate=1398.2kbits/s speed=0.0123x elapsed=0:06:05.80    \nframe=  273 fps=0.7 q=43.0 size=     768KiB time=00:00:04.51 bitrate=1393.0kbits/s speed=0.0123x elapsed=0:06:06.34    \nframe=  273 fps=0.7 q=43.0 size=     768KiB time=00:00:04.51 bitrate=1393.0kbits/s speed=0.0123x elapsed=0:06:06.89    \nframe=  273 fps=0.7 q=43.0 size=     768KiB time=00:00:04.51 bitrate=1393.0kbits/s speed=0.0123x elapsed=0:06:07.42    \nframe=  274 fps=0.7 q=34.6 size=     768KiB time=00:00:04.53 bitrate=1387.9kbits/s speed=0.0123x elapsed=0:06:07.96    \nframe=  275 fps=0.7 q=41.0 size=     768KiB time=00:00:04.55 bitrate=1382.8kbits/s speed=0.0123x elapsed=0:06:08.48    \nframe=  276 fps=0.7 q=42.0 size=     768KiB time=00:00:04.56 bitrate=1377.8kbits/s speed=0.0124x elapsed=0:06:08.99    \nframe=  277 fps=0.7 q=34.7 size=     768KiB time=00:00:04.58 bitrate=1372.8kbits/s speed=0.0124x elapsed=0:06:09.51    \nframe=  278 fps=0.8 q=41.0 size=     768KiB time=00:00:04.60 bitrate=1367.8kbits/s speed=0.0124x elapsed=0:06:10.04    \nframe=  279 fps=0.8 q=42.0 size=     768KiB time=00:00:04.61 bitrate=1362.8kbits/s speed=0.0125x elapsed=0:06:10.57    \nframe=  279 fps=0.8 q=42.0 size=     768KiB time=00:00:04.61 bitrate=1362.8kbits/s speed=0.0124x elapsed=0:06:11.10    \nframe=  279 fps=0.8 q=42.0 size=     768KiB time=00:00:04.61 bitrate=1362.8kbits/s speed=0.0124x elapsed=0:06:11.66    \nframe=  280 fps=0.8 q=34.4 size=     768KiB time=00:00:04.63 bitrate=1357.9kbits/s speed=0.0124x elapsed=0:06:12.18    \nframe=  280 fps=0.8 q=34.4 size=     768KiB time=00:00:04.63 bitrate=1357.9kbits/s speed=0.0124x elapsed=0:06:12.72    \nframe=  282 fps=0.8 q=42.0 size=     768KiB time=00:00:04.66 bitrate=1348.2kbits/s speed=0.0125x elapsed=0:06:13.24    \nframe=  282 fps=0.8 q=42.0 size=     768KiB time=00:00:04.66 bitrate=1348.2kbits/s speed=0.0125x elapsed=0:06:13.79    \nframe=  282 fps=0.8 q=42.0 size=     768KiB time=00:00:04.66 bitrate=1348.2kbits/s speed=0.0125x elapsed=0:06:14.32    \nframe=  283 fps=0.8 q=41.0 size=     768KiB time=00:00:04.68 bitrate=1343.4kbits/s speed=0.0125x elapsed=0:06:14.85    \nframe=  283 fps=0.8 q=41.0 size=     768KiB time=00:00:04.68 bitrate=1343.4kbits/s speed=0.0125x elapsed=0:06:15.37    \nframe=  284 fps=0.8 q=41.0 size=     768KiB time=00:00:04.70 bitrate=1338.7kbits/s speed=0.0125x elapsed=0:06:15.91    \nframe=  284 fps=0.8 q=41.0 size=     768KiB time=00:00:04.70 bitrate=1338.7kbits/s speed=0.0125x elapsed=0:06:16.45    \nframe=  285 fps=0.8 q=34.4 size=     768KiB time=00:00:04.71 bitrate=1334.0kbits/s speed=0.0125x elapsed=0:06:16.98    \nframe=  285 fps=0.8 q=34.4 size=     768KiB time=00:00:04.71 bitrate=1334.0kbits/s speed=0.0125x elapsed=0:06:17.52    \nframe=  286 fps=0.8 q=36.3 size=     768KiB time=00:00:04.73 bitrate=1329.3kbits/s speed=0.0125x elapsed=0:06:18.06    \nframe=  287 fps=0.8 q=41.0 size=     768KiB time=00:00:04.75 bitrate=1324.6kbits/s speed=0.0125x elapsed=0:06:18.60    \nframe=  287 fps=0.8 q=41.0 size=     768KiB time=00:00:04.75 bitrate=1324.6kbits/s speed=0.0125x elapsed=0:06:19.13    \nframe=  287 fps=0.8 q=41.0 size=     768KiB time=00:00:04.75 bitrate=1324.6kbits/s speed=0.0125x elapsed=0:06:19.67    \nframe=  289 fps=0.8 q=40.0 size=     768KiB time=00:00:04.78 bitrate=1315.4kbits/s speed=0.0126x elapsed=0:06:20.21    \nframe=  290 fps=0.8 q=35.2 size=     768KiB time=00:00:04.80 bitrate=1310.8kbits/s speed=0.0126x elapsed=0:06:20.74    \nframe=  291 fps=0.8 q=37.1 size=     768KiB time=00:00:04.81 bitrate=1306.3kbits/s speed=0.0126x elapsed=0:06:21.29    \nframe=  291 fps=0.8 q=37.1 size=     768KiB time=00:00:04.81 bitrate=1306.3kbits/s speed=0.0126x elapsed=0:06:21.81    \nframe=  292 fps=0.8 q=39.0 size=     768KiB time=00:00:04.83 bitrate=1301.8kbits/s speed=0.0126x elapsed=0:06:22.35    \nframe=  295 fps=0.8 q=34.5 size=     768KiB time=00:00:04.88 bitrate=1288.4kbits/s speed=0.0128x elapsed=0:06:22.88    \nframe=  296 fps=0.8 q=34.8 size=    1024KiB time=00:00:04.90 bitrate=1712.0kbits/s speed=0.0128x elapsed=0:06:23.41    \nframe=  296 fps=0.8 q=34.8 size=    1024KiB time=00:00:04.90 bitrate=1712.0kbits/s speed=0.0128x elapsed=0:06:23.94    \nframe=  297 fps=0.8 q=34.6 size=    1024KiB time=00:00:04.91 bitrate=1706.2kbits/s speed=0.0128x elapsed=0:06:24.47    \nframe=  299 fps=0.8 q=33.8 size=    1024KiB time=00:00:04.95 bitrate=1694.7kbits/s speed=0.0129x elapsed=0:06:25.00    \n[mp4 @ 000001e5bdbfcfc0] Starting second pass: moving the moov atom to the beginning of the file\n[out#0/mp4 @ 000001e5bdbeac00] video:1036KiB audio:0KiB subtitle:0KiB other streams:0KiB global headers:2KiB muxing overhead: 0.661364%\nframe=  300 fps=0.8 q=36.0 Lsize=    1043KiB time=00:00:04.96 bitrate=1720.5kbits/s speed=0.0129x elapsed=0:06:25.14    \nx265 [info]: frame I:      2, Avg QP:45.36  kb/s: 29569.68\nx265 [info]: frame P:     71, Avg QP:35.48  kb/s: 4769.81 \nx265 [info]: frame B:    227, Avg QP:39.39  kb/s: 488.88  \nx265 [info]: Weighted P-Frames: Y:5.6% UV:2.8%\n\nencoded 300 frames in 384.54s (0.78 fps), 1695.90 kb/s, Avg QP:38.51\n",
  "seconds": 385.6376702785492,
  "probe_out": {}
}